<?xml version="1.0" encoding="utf-8"?>
<!-- Generator: Adobe Illustrator 16.0.0, SVG Export Plug-In . SVG Version: 6.00 Build 0)  -->
<!DOCTYPE svg PUBLIC "-//W3C//DTD SVG 1.1//EN" "http://www.w3.org/Graphics/SVG/1.1/DTD/svg11.dtd">
<svg version="1.1" xmlns="http://www.w3.org/2000/svg" xmlns:xlink="http://www.w3.org/1999/xlink" x="0px" y="0px" width="1024px"
	 height="768px" viewBox="0 0 1024 768" enable-background="new 0 0 1024 768" xml:space="preserve">
<symbol  id="cerebro_x5F_1" viewBox="-1.521 -157.45 167.771 151.637">
	<g id="Layer_2_2_">
		<path fill-rule="evenodd" clip-rule="evenodd" fill="#F59698" d="M163.7-85.4c-0.417-0.768-0.801-1.284-1.15-1.55
			c2.202-4.833,1.618-9.434-1.75-13.8c-0.9-1.167-2.033-2.1-3.4-2.8c-3.096-1.585-5.596-1.619-7.5-0.1
			c-0.027-1.306-0.927-2.823-2.7-4.55c-0.467-0.433-0.967-0.883-1.5-1.35c-2.367-2.1-4.75-4.2-7.15-6.3
			c-4.267-3.7-9.2-6.316-14.8-7.85c-2.622-0.699-5.056-0.724-7.3-0.075c0.772-1.619,0.905-3.577,0.4-5.875
			c-0.258-1.252-0.45-2.519-0.575-3.8c-2.467-5.021-5.159-10.038-8.075-15.05c-1.2-2.067-2.65-3.8-4.35-5.2
			c-0.154-0.129-0.804-1.096-1.95-2.9c-6.026,8.815-11.076,17.765-15.15,26.85c-1.867,4.1-1.933,8.017-0.2,11.75
			c-5.1,2.767-8.95,6.717-11.55,11.85c-1.43,2.796-2.146,5.729-2.15,8.8c-2.196-1.311-4.563-2.278-7.1-2.9
			C58.883-101.983,55-99.733,54.1-93.5c-0.067,0.5-0.05,1,0.05,1.5c-1.47-0.106-2.944,0.027-4.425,0.4
			c-0.013-0.016-0.021-0.033-0.025-0.05c-1.434-0.967-2.667-0.867-3.7,0.3c-0.507,0.591-0.915,1.208-1.225,1.85
			c-4.85-1.103-8.325,0.313-10.425,4.25c-0.367,0.667-0.517,1.417-0.45,2.25c-11.367-0.867-20.6,3.267-27.7,12.4
			c-1.434,1.867-2.067,3.983-1.9,6.35c-3.333,2.267-4.783,5.383-4.35,9.35c0.333,3.2,0.733,6.4,1.2,9.6c0.133,1,0.167,2,0.1,3
			c0.033,0.066,0.083,0.117,0.15,0.15c0.033,0.066,0.083,0.133,0.15,0.2c0.026,0.013,0.051,0.03,0.075,0.05
			c0.601,2.975,2.676,5.375,6.225,7.2c1.8,0.934,3.467,2.117,5,3.55c2.7,2.566,5.217,5.316,7.55,8.25c0.934,1.2,2.117,2.1,3.55,2.7
			c3.969,1.727,8.053,2.96,12.25,3.7c0.122,0.52,0.389,1.003,0.8,1.45c1.7,1.767,3.7,2.7,6,2.8c0.558-0.098,1.033-0.248,1.425-0.45
			c1.991,1.634,4.266,2.734,6.825,3.3c0.533,0.133,1.083,0.383,1.65,0.75c1.1,0.7,2.217,1.2,3.35,1.5
			c3.348,0.401,5.964-0.007,7.85-1.225c3.292,1.78,6.843,2.605,10.65,2.475c2.665-0.915,4.923-2.123,6.775-3.625
			C81.458-9.128,81.433-8.72,81.45-8.3c0.1,1.966,1.283,2.767,3.55,2.4c4.076-0.979,7.143-2.788,9.2-5.425
			c0.298,0.143,0.632,0.251,1,0.325c1.7,0.333,3.383,0.483,5.05,0.45c3.386-0.709,5.911-2.618,7.575-5.725
			c0.141,0.186,0.299,0.36,0.475,0.525c0.867,0.8,1.85,1.167,2.95,1.1c2.833-0.667,5.1-2.217,6.8-4.65
			c0.412-0.585,0.771-1.186,1.075-1.8c0.385,0.054,0.76,0.104,1.125,0.15c0.867,0.1,1.7,0.167,2.5,0.2c1.9-0.4,3.683-1.1,5.35-2.1
			c1.733-1.066,2.816-2.6,3.25-4.6c0.167-0.7,0.367-1.4,0.6-2.1c5.9-0.233,8.966-3.15,9.2-8.75c0.005-0.088,0.005-0.172,0-0.25
			c2.162-0.072,4.079-0.822,5.75-2.25c1.833-1.6,2.983-3.517,3.45-5.75c0.133-0.767,0.2-1.567,0.2-2.4
			c2.233-0.667,3.817-2.15,4.75-4.45c1-2.5,1.633-5.083,1.9-7.75c0.2-2,0.05-3.934-0.45-5.8c2.933-0.966,5.067-2.833,6.4-5.6
			c0.647-1.294,1.072-2.636,1.275-4.025C165.621-79.3,165.379-82.242,163.7-85.4z"/>
	</g>
	<g id="Layer_1_2_">
		<path fill-rule="evenodd" clip-rule="evenodd" fill="#C37676" d="M166.25-79.6c-0.033-2.733-1.083-4.983-3.15-6.75
			c1.9-3.367,2.017-6.9,0.35-10.6c-2.434-5.433-6.65-7.966-12.65-7.6c-0.862,0.063-1.687,0.196-2.475,0.4
			c0.056-0.39-0.002-0.791-0.175-1.2c-2.933-6.767-7.683-11.867-14.25-15.3c-5.1-2.667-10.533-4.067-16.3-4.2
			c-0.889-0.016-1.772-0.008-2.65,0.025c1.076-2.292,1.659-4.817,1.75-7.575c0.001-0.052,0.001-0.102,0-0.15
			c-0.578-1.203-1.169-2.403-1.775-3.6c0.042,3.038-0.233,6.021-0.825,8.95c-0.2,0.926-0.159,1.726,0.125,2.4
			c-2.504,0.146-4.979,0.496-7.425,1.05c-7.5,1.7-12.9,5.817-16.2,12.35c-0.918,1.808-1.21,3.7-0.875,5.675
			c-0.927,0.224-1.853,0.699-2.775,1.425c-2.3,1.767-4.05,3.95-5.25,6.55c-0.502,1.079-0.793,2.154-0.875,3.225
			c-0.573,0.859-0.564,1.667,0.025,2.425c1.2-2.667,3.5-4.15,6.9-4.45c1.633-0.167,3.2,0.033,4.7,0.6
			c1.733,0.7,3.316,1.684,4.75,2.95c0.3,0.3,0.617,0.317,0.95,0.05c0.6-2.333,2.283-3.7,5.05-4.1c2.566-0.367,4.9,0.183,7,1.65
			c1,0.7,2.033,1.15,3.1,1.35c0.067,0.033,0.15,0.017,0.25-0.05c-0.133-1.367-1.017-2.433-2.65-3.2c-2.4-1.167-4.917-1.55-7.55-1.15
			c-1.867,0.267-3.583,0.95-5.15,2.05c-0.534,0.4-0.934,0.883-1.2,1.45c-1.226-1.116-2.534-1.941-3.925-2.475
			c0.12-0.092,0.245-0.184,0.375-0.275c0.4-0.233,0.816-0.417,1.25-0.55c0.233-0.033,0.4-0.15,0.5-0.35
			c-0.534-0.533-1.167-0.617-1.9-0.25c-0.433,0.233-0.816,0.533-1.15,0.9c-0.033,0.034-0.066,0.067-0.1,0.1c0,0.037,0,0.071,0,0.1
			c-0.641-0.164-1.299-0.272-1.975-0.325c0.131-0.398,0.356-0.756,0.675-1.075c0.6-0.6,1.333-0.983,2.2-1.15
			c0.3-0.067,0.533-0.233,0.7-0.5c-0.33-0.137-0.655-0.22-0.975-0.25c0.231-0.805,0.131-1.664-0.3-2.575
			c1.834-4.452,4.926-7.876,9.275-10.275c4.367-2.434,9.017-3.967,13.95-4.6c1.566-0.233,3.117-0.367,4.65-0.4
			c0.067,0,0.117-0.033,0.15-0.1c-2.333-0.967-4.9-1.1-7.7-0.4c-6.4,1.6-12.067,4.583-17,8.95c-0.973,0.838-1.781,1.772-2.425,2.8
			c0.096-0.294,0.188-0.594,0.275-0.9c0.8-2.667,2.434-4.717,4.9-6.15c3.667-2.167,7.5-3.867,11.5-5.1
			c0.833-0.267,1.65-0.55,2.45-0.85c-7.066,0.5-13.2,3.333-18.4,8.5c-1.033,1.033-1.75,2.267-2.15,3.7
			c-0.227,0.781-0.377,1.531-0.45,2.25c-0.333-4.667,1.517-8.45,5.55-11.35c4.133-2.934,8.7-4.7,13.7-5.3
			c6.3-0.733,12.367-0.1,18.2,1.9c7.1,2.434,12.583,6.817,16.45,13.15c0.8,1.333,1.3,2.733,1.5,4.2
			c0.02,0.128,0.045,0.244,0.075,0.35c-0.017,0.034-0.025,0.067-0.025,0.1c-0.033,0.066-0.05,0.133-0.05,0.2
			c0.034,0.034,0.05,0.067,0.05,0.1c0.045,0.01,0.086,0.019,0.125,0.025c0.183,0.464,0.425,0.497,0.725,0.1
			c0.85,0.062,1.766-0.029,2.75-0.275c2.633-0.633,5-0.183,7.1,1.35c3.233,2.333,5.083,5.483,5.55,9.45
			c0.267,2.333-0.317,4.367-1.75,6.1c-0.133,0.133-0.1,0.283,0.1,0.45c2.833,2.2,3.8,5.133,2.9,8.8c-0.434,1.7-1.15,3.317-2.15,4.85
			c-1.295,1.999-2.945,3.257-4.95,3.775c-0.12-0.461-0.22-0.92-0.3-1.375c-1.2,0.767-1.467,2.017-0.8,3.75
			c1.434,3.9,1.033,7.6-1.2,11.1c-2.434,3.8-5.85,5.917-10.25,6.35c0.033,0.2,0.167,0.333,0.4,0.4c0.4,0.067,0.783,0.167,1.15,0.3
			s0.733,0.184,1.1,0.15c0.547-0.114,1.072-0.256,1.575-0.425c0.02,0.635-0.022,1.26-0.125,1.875
			c-0.466,2.867-2.083,4.817-4.85,5.85c-1.03,0.378-1.997,0.745-2.9,1.1c-0.035-0.019-0.068-0.036-0.1-0.05
			c-3.567-2-6.567-1.483-9,1.55c-0.233,0.267-0.317,0.583-0.25,0.95c0.533-0.667,1.233-1.216,2.1-1.65
			c1.984-1.021,3.892-1.046,5.725-0.075c0.035,0.095,0.093,0.17,0.175,0.225c0.1,0.034,0.2,0.067,0.3,0.1
			c0.041,0.012,0.083,0.02,0.125,0.025c0.058,0.043,0.117,0.085,0.175,0.125c-1.233,3.767-3.95,6.133-8.15,7.1
			c-0.6,0.133-1.066,0.517-1.4,1.15c-2.1,4.067-5.333,6.4-9.7,7c-0.756,0.101-1.456,0.076-2.1-0.075
			c-0.181-0.235-0.397-0.477-0.65-0.725c-0.433-0.4-0.966-0.683-1.6-0.85c-3-0.767-5.833-1.85-8.5-3.25
			c-1.033-0.53-1.6-1.33-1.7-2.4c1.338-0.563,2.538-1.446,3.6-2.65c0.298-0.333,0.573-0.675,0.825-1.025
			c0.015,0.05,0.073,0.075,0.175,0.075c3.2-2.633,6.967-4.25,11.3-4.85c3.7-0.5,6.967-1.933,9.8-4.3
			c1.386-1.175,2.378-2.625,2.975-4.35c0.389,0.243,0.831,0.376,1.325,0.4c0.533,0,1.067,0,1.6,0c1.733-0.033,3.017-0.767,3.85-2.2
			c0.833-1.4,0.966-2.883,0.4-4.45c-0.2-0.5-0.434-0.967-0.7-1.4c2.867,0.4,5.267-0.633,7.2-3.1c2.633-3.3,3.9-7,3.8-11.1
			c0-0.4-0.083-0.783-0.25-1.15c-0.933-2.5-2.6-4.367-5-5.6c-3.533-1.767-7.1-2.517-10.7-2.25c4.667,1.1,8.9,3.05,12.7,5.85
			c0.2,0.167,0.4,0.4,0.6,0.7c1.967,2.8,2.067,5.717,0.3,8.75c-0.466,0.867-0.966,1.717-1.5,2.55c-1.133,1.867-2.667,3.333-4.6,4.4
			c-0.934,0.034-1.833-0.1-2.7-0.4c-0.5-0.167-0.967-0.433-1.4-0.8c-0.1-0.067-0.217-0.083-0.35-0.05
			c-0.033,1.434,0.417,2.917,1.35,4.45c0.3,0.5,0.367,1.067,0.2,1.7c-0.566,2.433-2.316,3.316-5.25,2.65
			c-0.188-0.044-0.372-0.078-0.55-0.1c0.081-0.372,0.147-0.755,0.2-1.15c0.433-3.533-0.483-6.4-2.75-8.6
			c0.9,2.6,1.267,5.317,1.1,8.15c-0.167,2.767-1.3,4.9-3.4,6.4c-3.433,2.434-7.25,3.934-11.45,4.5
			c-3.27,0.467-5.787,1.842-7.55,4.125c0.923-1.669,1.373-3.511,1.35-5.525c0-0.933-0.167-1.833-0.5-2.7
			c1.767-0.467,3.167-1.517,4.2-3.15c1.267-2,1.933-4.15,2-6.45c0.033-1.733-0.284-3.35-0.95-4.85c-0.133,1.1-0.15,2.25-0.05,3.45
			c0.233,2.267-0.217,4.4-1.35,6.4c-0.867,1.533-2.1,2.483-3.7,2.85c-0.566,0.133-1.133,0.267-1.7,0.4
			c-0.067,0.033-0.15,0.083-0.25,0.15c0.566,1.4,0.85,2.933,0.85,4.6c0,1.867-0.533,3.566-1.6,5.1c-1.9,2.8-4.4,3.867-7.5,3.2
			c-0.333-0.066-0.667-0.2-1-0.4c-0.034-0.8-0.217-1.567-0.55-2.3c-0.8-1.867-2.1-3.284-3.9-4.25c-1.467-0.8-3-1-4.6-0.6
			c-0.467-1.333-1.25-2.434-2.35-3.3c-1.6-1.267-2.983-2.7-4.15-4.3c-0.566-0.767-0.667-1.6-0.3-2.5c0.633-1.5,1.733-2.217,3.3-2.15
			c-2.133-0.767-3.55,0.033-4.25,2.4c-0.733,2.267-0.017,4.033,2.15,5.3c2.067,1.167,3.467,2.883,4.2,5.15
			c0.056,0.174,0.123,0.333,0.2,0.475c-0.252,0.146-0.502,0.338-0.75,0.575c-0.5,0.5-0.784,1.1-0.85,1.8
			c-0.033,0.333,0.083,0.55,0.35,0.65c0.3-0.633,0.75-1.15,1.35-1.55c0.373-0.263,0.706-0.538,1-0.825
			c0.256-0.004,0.539-0.062,0.85-0.175c0.967-0.367,1.9-0.316,2.8,0.15c1.681,0.894,2.939,2.078,3.775,3.55
			c0.014,0.473-0.095,0.939-0.325,1.4c-1.267,2.767-3.483,4.133-6.65,4.1c-0.333,0-0.667-0.017-1-0.05
			c0.033,0.167,0.2,0.284,0.5,0.35c0.367,0.133,0.733,0.233,1.1,0.3c0.566,0.1,1.117,0.15,1.65,0.15
			c1.833-0.367,3.35-1.217,4.55-2.55c0.466-0.537,0.808-1.087,1.025-1.65c0.065,0.242,0.123,0.492,0.175,0.75
			c0.067,0.267,0.233,0.517,0.5,0.75c0.4,0.434,0.867,0.717,1.4,0.85c1.086,0,2.103-0.15,3.05-0.45
			c-0.062,0.324,0.004,0.699,0.2,1.125c-0.029-0.008-0.062-0.016-0.1-0.025c0.067,0.967,0.583,1.667,1.55,2.1
			c0.833,0.4,1.083,1,0.75,1.8c-0.533,1.167-1.417,1.367-2.65,0.6c-0.434-0.233-0.833-0.183-1.2,0.15c-0.1,0.467-0.3,0.9-0.6,1.3
			c-0.733,0.967-1.767,1.467-3.1,1.5c-0.733,0-1.3,0.167-1.7,0.5c0.066,0.1,0.167,0.15,0.3,0.15c0.5,0.1,1,0.133,1.5,0.1
			c0.7-0.033,1.383-0.167,2.05-0.4c0.667-0.267,1.2-0.7,1.6-1.3c0.133-0.167,0.284-0.35,0.45-0.55c2.233,0.767,3.733,0.217,4.5-1.65
			c0.183-0.409,0.267-0.792,0.25-1.15c2.318,1.123,4.718,2.073,7.2,2.85c1.733,0.533,2.117,1.617,1.15,3.25
			c-0.267,0.434-0.283,0.7-0.05,0.8c1.474-0.842,2.082-1.809,1.825-2.9c0.428,0.133,0.887,0.2,1.375,0.2c0.533,0,1.067,0,1.6,0
			c4.5-1.533,7.95-4.333,10.35-8.4c0.233-0.434,0.617-0.717,1.15-0.85c4.343-1.022,6.743-3.539,7.2-7.55
			c2.364-0.331,4.398-1.348,6.1-3.05c1.867-1.833,2.8-4.033,2.8-6.6c0-0.273-0.034-0.507-0.1-0.7c2.827-1.177,5.043-3.193,6.65-6.05
			c2.133-3.7,2.517-7.583,1.15-11.65c-0.095-0.264-0.187-0.522-0.275-0.775c0.244,0.028,0.485,0.053,0.725,0.075
			c1.767-0.667,3.283-1.8,4.55-3.4C165.133-72.967,166.25-76.1,166.25-79.6z M107.9-15.5c0.133,0.233,0.333,0.4,0.6,0.5
			c0.567,0.233,1.15,0.3,1.75,0.2c1.033-0.233,2.05-0.55,3.05-0.95c1.133-0.433,1.8-1.217,2-2.35c0.1-0.367,0.184-0.733,0.25-1.1
			c-0.533,0.467-1.133,0.95-1.8,1.45c-1.856,1.407-3.656,1.749-5.4,1.025c0.735-0.996,1.402-2.054,2-3.175
			c0.367-0.733,0.35-1.417-0.05-2.05c-0.1-0.033-0.2-0.05-0.3-0.05s-0.183,0.017-0.25,0.05c-0.1,0.034-0.183,0.083-0.25,0.15
			c-0.5,1.267-1.15,2.45-1.95,3.55c-1.267,1.867-2.8,3.517-4.6,4.95c-1.067,0.833-2.184,1.383-3.35,1.65
			c0.033,0.033,0.083,0.066,0.15,0.1c0.2,0.033,0.417,0.066,0.65,0.1c0.067,0,0.15,0,0.25,0c2.267-0.3,4.2-1.3,5.8-3
			c0.422-0.449,0.83-0.916,1.225-1.4C107.74-15.73,107.815-15.614,107.9-15.5z M81.575-8.275c0.026-0.026,0.051-0.051,0.075-0.075
			c0.434-1.367,1.5-2.267,3.2-2.7c0.4-0.133,0.667-0.4,0.8-0.8c0.667-1.8,0.083-3.117-1.75-3.95c-5.467-2.5-8.833-6.55-10.1-12.15
			c-0.966-4.1-3.566-6.683-7.8-7.75c-1.1-0.267-2.2-0.617-3.3-1.05c-2.867-1.167-5.633-2.517-8.3-4.05c-1.1-0.633-1.6-1.55-1.5-2.75
			c0.013-0.246,0.03-0.488,0.05-0.725c0.197-0.288,0.381-0.596,0.55-0.925c1.1-2.133,1.767-4.417,2-6.85
			c0.1-0.767,0.3-1.483,0.6-2.15c-1.4,0.8-2.233,2.2-2.5,4.2c-0.367,2.9-1.817,5.05-4.35,6.45c-0.467,0.267-1.017,0.333-1.65,0.2
			c-2.267-0.367-3.967-1.617-5.1-3.75c-0.667-1.233-1.083-2.533-1.25-3.9c-0.157-1.312-0.616-2.286-1.375-2.925
			c1.069-0.348,2.127-0.673,3.175-0.975c0.3-0.1,0.633-0.167,1-0.2c0.3-0.066,0.6-0.1,0.9-0.1c-1.867-1.233-3.817-1.3-5.85-0.2
			c-3.5,1.9-6.85,1.8-10.05-0.3c-1.233-0.833-1.933-1.95-2.1-3.35c-0.067-0.467-0.184-0.9-0.35-1.3
			c-0.053,0.013-0.103,0.03-0.15,0.05c2.594-1.861,5.561-2.877,8.9-3.05c1.2-0.066,2.316-0.383,3.35-0.95
			c-6.867-0.867-12.5,1.316-16.9,6.55c-1.333,1.567-2.133,3.333-2.4,5.3c-0.1,0.833-0.066,1.55,0.1,2.15
			c0.9-3.567,2.817-6.583,5.75-9.05c0.271-0.233,0.546-0.458,0.825-0.675c-0.105,0.139-0.18,0.314-0.225,0.525
			c-0.167,0.967-0.033,1.867,0.4,2.7c0.6,1.1,1.4,2.017,2.4,2.75c1.133,0.867,2.383,1.383,3.75,1.55c0.66,0.047,1.31,0.047,1.95,0
			c0.103,2.002-0.597,3.853-2.1,5.55c-2.067,2.367-2.5,4.85-1.3,7.45c-0.118-1.88,0.207-3.614,0.975-5.2
			c1.891-1.172,3.916-1.039,6.075,0.4c0.967,0.667,1.767,1.5,2.4,2.5c1,1.466,2.133,2.783,3.4,3.95c0.067,0.067,0.133,0.1,0.2,0.1
			c-0.533-2.433-1.817-4.767-3.85-7c-2.04-2.199-4.432-2.749-7.175-1.65c0.362-0.486,0.771-0.953,1.225-1.4
			c0.4-0.434,0.75-0.934,1.05-1.5c0.74-1.375,0.89-2.492,0.45-3.35c0.71-0.128,1.411-0.312,2.1-0.55
			c0.514-0.184,1.022-0.359,1.525-0.525c0.224,0.981,0.432,2.023,0.625,3.125c0.433,2.633,1.566,4.967,3.4,7
			c1.133,1.233,2.6,1.9,4.4,2c0.461,0,0.903-0.033,1.325-0.1c2.042,2.211,2.483,4.994,1.325,8.35c-0.233,0.667-0.35,1.383-0.35,2.15
			c-0.133,4.6,1.367,8.534,4.5,11.8c0.534,0.566,1.15,1.033,1.85,1.4c-0.333-0.9-0.967-1.9-1.9-3c-1.433-1.733-2.317-3.7-2.65-5.9
			c-0.567-3.7-0.55-7.4,0.05-11.1c0.318-1.934-0.124-3.326-1.325-4.175c0.566-0.276,1.083-0.643,1.55-1.1
			c-0.027,0.342-0.019,0.717,0.025,1.125c0.1,1.233,0.733,2.2,1.9,2.9c2.267,1.333,4.617,2.55,7.05,3.65
			c0.297,0.134,0.597,0.267,0.9,0.4c-0.237,0.272-0.437,0.689-0.6,1.25c-0.7,2.333-0.383,4.534,0.95,6.6
			c1.033,1.667,2.417,2.75,4.15,3.25c-1.033-1.233-2.033-2.583-3-4.05c-0.967-1.5-1.35-3.117-1.15-4.85
			c0.066-0.533,0.233-1.033,0.5-1.5c0.2-0.033,0.417-0.033,0.65,0c0.041,0.004,0.083,0.004,0.125,0
			c1.474,0.638,2.966,1.255,4.475,1.85c2.566,1.033,4.133,2.883,4.7,5.55c1,4.967,3.817,8.717,8.45,11.25
			c1.333,0.767,2.367,1.733,3.1,2.9c0.3,0.5,0.117,0.867-0.55,1.1c-0.751,0.23-1.393,0.588-1.925,1.075
			c0.002-0.106-0.006-0.214-0.025-0.325c-1.4,1.267-3.017,2.35-4.85,3.25c-1.467,0.7-3.05,0.883-4.75,0.55
			c-1.6-0.3-3.017-0.367-4.25-0.2c0.8,0.5,1.7,0.883,2.7,1.15c1.767,0.434,3.583,0.567,5.45,0.4c1.2-0.167,2.317-0.566,3.35-1.2
			c0.326-0.21,0.626-0.443,0.9-0.7c0.385,0.474,0.852,0.824,1.4,1.05c0.733,0.267,1.467,0.433,2.2,0.5
			c5.167-0.133,8.433-2.517,9.8-7.15c0.233-0.833,0.067-1.6-0.5-2.3C89.467-20.617,85.9-25.7,82.6-31
			c-0.41-0.63-0.985-1.097-1.725-1.4c-1.194-1.902-1.703-4.086-1.525-6.55c0.133-1.367-0.35-2.566-1.45-3.6
			c-3.1-2.9-4.75-6.383-4.95-10.45c-0.067-1.1,0.233-2.067,0.9-2.9c-1.967,0.367-2.75,1.8-2.35,4.3c0.733,4.434,2.733,8.317,6,11.65
			c0.767,0.767,1.083,1.733,0.95,2.9c-0.15,1.651,0.125,3.076,0.825,4.275c-1.581-0.145-2.873,0.463-3.875,1.825
			c2-0.367,3.967-0.1,5.9,0.8c0.567,0.267,1.017,0.7,1.35,1.3c2.2,4.1,4.85,7.85,7.95,11.25c1.367,1.5,1.933,3.167,1.7,5
			c-0.066,0.533-0.267,1.017-0.6,1.45c-2.233,2.7-5.117,3.816-8.65,3.35C82.499-7.874,82.007-8.032,81.575-8.275z M100.15-48.2
			c0.395-0.479,0.711-0.97,0.95-1.475c0.736,3.341,2.069,6.466,4,9.375c0.133,0.167,0.283,0.233,0.45,0.2
			c-1.133-3.367-2.183-6.883-3.15-10.55c-0.967-3.8,0.333-6.517,3.9-8.15c2.133-0.967,4.333-1.8,6.6-2.5
			c2.667-0.867,4.75-2.45,6.25-4.75c1.033-1.567,1.267-3.167,0.7-4.8c-1.3,4.8-4.567,7.733-9.8,8.8
			c-2.066,0.439-3.867,1.239-5.4,2.4c-0.815,0.016-1.582,0.399-2.3,1.15c-0.833,0.867-1.867,1.483-3.1,1.85
			c-2.033,0.6-3.883,0.367-5.55-0.7c-0.178-0.632-0.495-1.007-0.95-1.125c-0.331-0.735-1.147-1.311-2.45-1.725
			c-2.933-0.933-5.767-2.183-8.5-3.75c-2.133-1.233-4.033-2.683-5.7-4.35c0.667,2.367,2.217,4.233,4.65,5.6
			c2.933,1.6,5.95,2.934,9.05,4c0.475,0.158,0.916,0.358,1.325,0.6c-0.091,0.046-0.183,0.096-0.275,0.15
			C87.217-55.85,83.3-55,79.1-55.4c-1.567-0.167-2.867-0.65-3.9-1.45c0.1,0.434,0.316,0.817,0.65,1.15c0.5,0.534,1.133,0.867,1.9,1
			c1.433,0.3,2.883,0.467,4.35,0.5c1.533,0.034,3.05-0.117,4.55-0.45c1.5-0.367,2.917-0.95,4.25-1.75
			c0.434-0.267,0.9-0.417,1.4-0.45c1.633,1.7,3.75,2.317,6.35,1.85c0.988-0.189,1.888-0.505,2.7-0.95
			c-0.567,0.971-0.809,2.046-0.725,3.225c-0.106,0.287-0.198,0.595-0.275,0.925c-0.133,0.566-0.35,1.117-0.65,1.65
			c-1.133,1.867-2.684,3.15-4.65,3.85c0.133,0.033,0.25,0.066,0.35,0.1c0.1,0.034,0.184,0.067,0.25,0.1
			c0.067,0.033,0.133,0.067,0.2,0.1c0.1,0,0.183,0.017,0.25,0.05C97.767-46.15,99.117-46.9,100.15-48.2z M105-60.2
			c0.533-1.167,0.433-2.4-0.3-3.7c-0.667-1.2-1.617-2.1-2.85-2.7c-0.434-0.233-0.867-0.4-1.3-0.5c-0.066-1.4-0.966-2.316-2.7-2.75
			c-0.8-0.2-1.533-0.583-2.2-1.15c-2.367-2.033-4.833-3.867-7.4-5.5c-1.167-0.7-2.4-0.883-3.7-0.55c-2.066,0.533-3.1,1.816-3.1,3.85
			c-4.633-2.633-9.583-3.566-14.85-2.8c-0.541,0.085-1.041,0.227-1.5,0.425c0.745-2.228,0.611-4.653-0.4-7.275
			c-0.864-2.22-2.33-3.729-4.4-4.525C60.184-88.304,60.417-89.179,61-90c0.867-1.267,2.083-2.017,3.65-2.25
			c0.4-0.067,0.733-0.183,1-0.35c-3.033-0.9-5.2,0.033-6.5,2.8c-0.309,0.645-0.408,1.312-0.3,2c-0.302-0.061-0.619-0.111-0.95-0.15
			c-0.467-0.033-0.967-0.1-1.5-0.2c-1.933-0.3-3.417,0.383-4.45,2.05c3.167-1.1,6.3-0.65,9.4,1.35c1.4,0.9,2.3,2.183,2.7,3.85
			c0.531,2.358,0.314,4.534-0.65,6.525c-0.217,0.25-0.417,0.524-0.6,0.825c-1.5,2.566-1.05,4.65,1.35,6.25
			c3.233,2.133,6.483,4.033,9.75,5.7c0.267,0.133,0.483,0.083,0.65-0.15c-3.933-2.6-7.566-5.483-10.9-8.65
			c-0.333-0.3-0.417-0.7-0.25-1.2c0.867-2.767,2.95-4.1,6.25-4c2.533,0.1,4.934,0.75,7.2,1.95c1.967,1,3.917,1.617,5.85,1.85
			c0.167,0.033,0.216-0.083,0.15-0.35c-0.434-2.533,0.65-3.684,3.25-3.45c2.033,0.2,3.733,1.067,5.1,2.6
			c0.8,0.9,1.667,1.733,2.6,2.5c1.667,1.4,3.45,2.533,5.35,3.4c-0.4,1.333,0.25,2.017,1.95,2.05c0.367,0,0.717,0.133,1.05,0.4
			c1.067,0.9,1.8,2.017,2.2,3.35C104.517-60.833,104.733-60.467,105-60.2z M102.7-71.65c-0.534,0.6-0.717,1.117-0.55,1.55
			c4.934-4.8,10.867-7.6,17.8-8.4c2.7-0.3,5.316-0.283,7.85,0.05c0.167,0.034,0.2-0.033,0.1-0.2c-0.667-1.133-1.767-1.733-3.3-1.8
			c-7.667-0.4-14.283,1.833-19.85,6.7C104.017-73.117,103.333-72.417,102.7-71.65z M100.25-77.85c0.154-2.909-0.721-5.176-2.625-6.8
			c0.281-0.296,0.556-0.646,0.825-1.05c0.9-1.333,2.183-2.183,3.85-2.55c2.934-0.633,5.7-0.367,8.3,0.8
			c0.667,0.3,1.233,0.767,1.7,1.4c0.7,1,1.133,2.117,1.3,3.35c0.066,0.633,0.4,1.05,1,1.25c0.4-1.3,0.25-2.716-0.45-4.25
			c-0.363-0.855-0.879-1.588-1.55-2.2c1.288-1.524,2.888-2.807,4.8-3.85c1.567-0.867,3.25-1.333,5.05-1.4
			c4.367-0.233,7.716,1.433,10.05,5c1.167,1.767,2.483,3.267,3.95,4.5c-0.333-2.665-1.633-5.015-3.9-7.05
			c1.379-1.522,3.129-2.522,5.25-3c1.333-0.3,2.667-0.283,4,0.05c1.767,0.467,2.95,1.55,3.55,3.25c0.667-1.667-0.017-2.95-2.05-3.85
			c-2.533-1.167-5.15-1.233-7.85-0.2c-1.907,0.729-3.023,1.846-3.35,3.35c-0.082-0.065-0.166-0.132-0.25-0.2
			c-4.033-3.233-8.6-4.034-13.7-2.4c-3.014,0.974-5.03,2.766-6.05,5.375c-0.029-0.022-0.062-0.047-0.1-0.075
			c-2.267-1.7-4.817-2.25-7.65-1.65c-0.967,0.2-1.917,0.4-2.85,0.6c-2.665,0.659-4.223,2.059-4.675,4.2
			c-0.822-0.563-1.797-1.03-2.925-1.4c-3.508-1.141-6.841-1.041-10,0.3c0.268-1.338-0.465-2.505-2.2-3.5
			c-3.071-1.816-6.096-1.95-9.075-0.4c-0.006-1.033-0.448-2.117-1.325-3.25c-1.566-2-3.566-3.433-6-4.3
			c-1.6-0.6-3.133-0.534-4.6,0.2c4,0.067,7.066,1.767,9.2,5.1c0.61,0.943,1.152,1.918,1.625,2.925
			c-1.458,1.052-2.433,2.494-2.925,4.325c0.867-0.567,1.816-1.4,2.85-2.5c1.733-1.933,3.95-2.667,6.65-2.2
			c2.1,0.367,3.483,1.5,4.15,3.4c0.101,0.282,0.234,0.549,0.4,0.8c-0.119,0.068-0.235,0.135-0.35,0.2c-0.367,0.2-0.7,0.483-1,0.85
			c-0.466,0.633-0.933,1.267-1.4,1.9c-0.033,0.1-0.017,0.2,0.05,0.3c0.066,0.067,0.117,0.15,0.15,0.25
			c0.066,0.067,0.15,0.117,0.25,0.15c3.1-3.7,7.25-4.85,12.45-3.45c1.6,0.4,2.95,1.216,4.05,2.45c0.933,1.067,1.667,2.283,2.2,3.65
			C99.317-78.783,99.717-78.25,100.25-77.85z M87.475-97.975c0.107-0.795,0.448-1.52,1.025-2.175c0.789-0.888,1.755-1.496,2.9-1.825
			c0.261,0.318,0.553,0.618,0.875,0.9c-0.999,0.025-1.923,0.566-2.775,1.625c-0.306,0.418-0.473,0.868-0.5,1.35
			C88.5-98.087,87.992-98.045,87.475-97.975z M81.95-95.75c0.722-1.386,1.539-2.72,2.45-4c1.467-2.033,3.333-3.55,5.6-4.55
			c0.027-0.013,0.052-0.03,0.075-0.05c0.214,0.616,0.498,1.183,0.85,1.7c-1.501,0.114-2.76,0.915-3.775,2.4
			c-0.5,0.733-0.717,1.55-0.65,2.45c-0.492,0.109-0.992,0.243-1.5,0.4C83.851-97.042,82.833-96.492,81.95-95.75z M116.1-94.95
			c1.6-2.733,4.233-3.966,7.9-3.7c4.667,0.367,9.283,0.15,13.85-0.65c2.733-0.467,4.9-1.65,6.5-3.55c0.367-0.4,0.35-0.783-0.05-1.15
			c-0.204,0.133-0.413,0.266-0.625,0.4c-0.29-1.484-1.282-2.801-2.975-3.95c-2.233-1.534-4.717-2.567-7.45-3.1
			c-1.733-0.333-3.383-0.467-4.95-0.4c3.3,0.9,6.55,2.1,9.75,3.6c1.667,0.767,3.133,1.817,4.4,3.15
			c0.309,0.333,0.617,0.625,0.925,0.875c-0.386,0.227-0.778,0.443-1.175,0.65c-0.352-0.977-1.252-1.718-2.7-2.225
			c-2.4-0.833-4.833-1.583-7.3-2.25c-1.733-0.5-3.35-0.633-4.85-0.4c2.533,0.7,5.083,1.467,7.65,2.3c2.1,0.667,4.017,1.633,5.75,2.9
			c0.108,0.08,0.217,0.155,0.325,0.225c-4.377,2.029-9.319,2.804-14.825,2.325c-3.5-0.3-6.617,0.517-9.35,2.45
			C115.833-96.683,115.567-95.85,116.1-94.95z M155.3-70.15c2.5-1.567,4.317-3.6,5.45-6.1c0.4-0.933,0.483-1.9,0.25-2.9
			c-0.509-2.214-1.742-3.614-3.7-4.2c2.842-1.423,3.859-3.856,3.05-7.3c-0.633-2.533-1.967-4.717-4-6.55
			c-0.467-0.433-1.017-0.767-1.65-1c-1.167-0.433-2.233-0.4-3.2,0.1c3.133,1.233,5.5,3.45,7.1,6.65c1.3,2.567,0.833,4.867-1.4,6.9
			c-0.445,0.415-0.928,0.723-1.45,0.925c-0.164-0.011-0.331-0.02-0.5-0.025c-1.3-0.067-2.55-0.25-3.75-0.55
			c-0.267-0.1-0.5-0.216-0.7-0.35c1.2,1.633,3.05,2.5,5.55,2.6c0.667,0.034,1.25,0.25,1.75,0.65c2.133,1.667,2.4,3.683,0.8,6.05
			c-0.633,0.967-1.35,1.867-2.15,2.7C155.883-71.683,155.4-70.883,155.3-70.15z M124.7-57.1c0.133-3.633,0.867-7.167,2.2-10.6
			c0.3-0.767,0.467-1.566,0.5-2.4c0.067-3.5-1.733-5.267-5.4-5.3c-0.533,0-0.967,0.117-1.3,0.35c3.6,0.5,5.25,2.35,4.95,5.55
			c-0.233,2.233-0.717,4.433-1.45,6.6c-1.534,4.467-1.117,8.683,1.25,12.65c0.433,0.7,0.983,1.267,1.65,1.7
			c0.433-0.4,0.333-1-0.3-1.8C125.3-52.317,124.6-54.567,124.7-57.1z M141.5-65.05c-0.133-1.967-0.917-3.717-2.35-5.25
			c-1.467-1.567-3.233-2.25-5.3-2.05c-0.085,0.013-0.168,0.029-0.25,0.05c0.008-0.218,0.024-0.435,0.05-0.65
			c0.333-2.966-0.617-5.45-2.85-7.45c-0.369-0.331-0.736-0.589-1.1-0.775c0.286-0.263,0.477-0.563,0.575-0.9
			c0.377,0.301,0.835,0.509,1.375,0.625c1.3,0.267,2.617,0.333,3.95,0.2c2.867,0.333,5.667,0.167,8.4-0.5
			c1.318-0.309,2.427-0.817,3.325-1.525c1.104,0.343,1.58,1.118,1.425,2.325c-0.1,0.934,0.067,1.767,0.5,2.5
			c0.033,0.1,0.1,0.15,0.2,0.15c0.733-0.833,1.033-1.917,0.9-3.25c-0.1-1.367-0.867-2.133-2.3-2.3c-0.029-0.003-0.054-0.003-0.075,0
			c0.871-0.917,1.479-2.084,1.825-3.5c0.233-0.967,0.117-1.833-0.35-2.6c-0.333,0.633-0.633,1.333-0.9,2.1
			c-1.066,3.167-3.333,4.817-6.8,4.95c-3.989,0.156-7.789,0.164-11.4,0.025c-0.035-0.386-0.168-0.812-0.4-1.275
			c-0.667-1.367-1.45-2.617-2.35-3.75c-0.333-0.434-0.684-0.833-1.05-1.2c-0.066-0.033-0.133-0.033-0.2,0
			c-0.133,0-0.267-0.017-0.4-0.05s-0.267-0.067-0.4-0.1c-0.066,0-0.117,0-0.15,0c0.8,1.1,1.583,2.25,2.35,3.45
			c0.833,1.233,1.133,2.5,0.9,3.8c-0.015,0.149-0.04,0.299-0.075,0.45c-0.77-0.077-1.512,0.206-2.225,0.85
			c2.7,0.534,4.4,2.083,5.1,4.65c0.4,1.566,0.617,3.15,0.65,4.75c0,0.433,0.117,0.883,0.35,1.35c1.167,2.6,2.2,5.217,3.1,7.85
			c0.467,1.3,0.95,2.5,1.45,3.6c0.633-3,0.017-5.9-1.85-8.7c-0.903-1.367-1.411-2.758-1.525-4.175
			c1.14,0.255,2.265,0.714,3.375,1.375c1.567,0.9,2.75,2.167,3.55,3.8C140.783-65.733,141.1-65.35,141.5-65.05z M150.35-94.65
			c0.033-0.033,0.066-0.067,0.1-0.1c-0.267-1.2-0.767-2.4-1.5-3.6c-0.867-1.533-2.2-2.283-4-2.25c-0.5,0.033-0.784,0.25-0.85,0.65
			c1.633,0.034,2.883,0.717,3.75,2.05c0.5,0.767,0.9,1.6,1.2,2.5c0.1,0.267,0.233,0.517,0.4,0.75c0.066,0.033,0.117,0.066,0.15,0.1
			h0.05c0.067,0,0.133,0.017,0.2,0.05c0.033,0,0.066,0,0.1,0c0.1-0.033,0.183-0.067,0.25-0.1
			C150.267-94.6,150.317-94.617,150.35-94.65z M65.55-10.55c0.233-0.534,0.25-1.083,0.05-1.65c-0.8,0.6-1.583,1.3-2.35,2.1
			c-0.5,0.567-1.133,0.9-1.9,1c-4.5,0.633-8.15-0.6-10.95-3.7c-0.3-0.267-0.55-0.6-0.75-1H49.6c-0.533,0-0.9,0.25-1.1,0.75
			c-0.173,0.46-0.439,0.777-0.8,0.95c-0.266,0.128-0.583,0.178-0.95,0.15c-0.5,0-0.967,0-1.4,0c0.033,0.034,0.066,0.05,0.1,0.05
			c0.367,0.267,0.8,0.433,1.3,0.5c0.332,0.037,0.649,0.012,0.95-0.075c0.243-0.067,0.477-0.176,0.7-0.325
			c0.233-0.133,0.434-0.3,0.6-0.5c0.033,0.1,0.05,0.183,0.05,0.25c0.333,1.066,1.017,1.867,2.05,2.4c2,1.066,4.1,1.783,6.3,2.15
			c1.533,0.1,3.05,0.033,4.55-0.2C63.717-8,64.917-8.95,65.55-10.55z M79-13.8c1.167,0.233,2.233,0.417,3.2,0.55
			c-0.767-1.867-2.333-2.85-4.7-2.95c-4.5-0.2-8.917,0.25-13.25,1.35c-1.633,0.4-3.3,0.55-5,0.45
			c-4.315-0.268-8.165-1.501-11.55-3.7c-0.407-0.273-0.807-0.557-1.2-0.85c-0.633-0.5-1.217-1.05-1.75-1.65
			c-4.633-5.3-10.567-7.933-17.8-7.9c-0.6,0-1.167-0.167-1.7-0.5c-2.433-1.6-4.317-3.733-5.65-6.4c-0.233-0.434-0.6-0.717-1.1-0.85
			c-2.267-0.6-4.45-1.3-6.55-2.1c-1.5-0.6-2.667-1.617-3.5-3.05C8.25-41.8,8-42.15,7.7-42.45c0.367,2.534,1.833,4.367,4.4,5.5
			c1.566,0.7,3.183,1.284,4.85,1.75c1.767,0.5,3.017,1.65,3.75,3.45c0.767,1.867,2.05,3.167,3.85,3.9
			c0.078,0.032,0.153,0.065,0.225,0.1c-0.564,0.289-1.089,0.756-1.575,1.4c-0.3,0.333-0.383,0.75-0.25,1.25
			c0.267,1.133,0.966,1.817,2.1,2.05c0.067,0,0.133,0.017,0.2,0.05c0.033,0,0.083,0,0.15,0c0.067,0,0.133-0.017,0.2-0.05
			c0.066,0,0.117-0.017,0.15-0.05C24.483-23.8,24-24.767,24.3-26c0.167-0.833,0.784-1.133,1.85-0.9
			c0.488,0.101,0.962,0.134,1.425,0.1c1.667,0.469,3.376,0.785,5.125,0.95c1.966,0.2,3.816,0.8,5.55,1.8
			c2.427,1.419,4.593,3.153,6.5,5.2c0.556,0.587,1.089,1.204,1.6,1.85c0.333,0.433,0.767,0.767,1.3,1
			c0.017,0.007,0.033,0.015,0.05,0.025c4.051,1.619,8.268,2.66,12.65,3.125c3.1-0.2,6.167-0.55,9.2-1.05
			C72.717-14.467,75.867-14.433,79-13.8z M46.5-23.35c0.367-0.066,0.733-0.083,1.1-0.05c0.267,0.033,0.417-0.083,0.45-0.35
			c-1.833-0.433-3.483-1.25-4.95-2.45c-0.667-0.5-1.15-1.167-1.45-2c-0.767-1.9-0.583-3.667,0.55-5.3
			c-1.167,0.333-1.883,1.183-2.15,2.55c-0.367,1.7-0.167,3.3,0.6,4.8c1.067,2,2.733,2.983,5,2.95
			C45.917-23.233,46.2-23.283,46.5-23.35z M49.9-48.05c2.1-2.833,2.7-6.1,1.8-9.8c-0.434-1.767-1.317-3.3-2.65-4.6
			c-0.346-0.338-0.688-0.638-1.025-0.9c3.464-2.265,7.173-2.148,11.125,0.35c2.733,1.7,4.317,4.2,4.75,7.5
			c0.333,2.5,0.017,4.833-0.95,7c-0.267,0.667-0.8,1.117-1.6,1.35c-2.434,0.7-3.65,2.033-3.65,4c1.833-1.9,3.983-3.317,6.45-4.25
			c0.14-0.051,0.256-0.117,0.35-0.2c1.384,0.815,2.517,1.999,3.4,3.55c0.533,0.966,1.033,1.933,1.5,2.9c0.067,0.2,0.2,0.3,0.4,0.3
			c0.567-1.533,0.284-3.066-0.85-4.6c-1.034-1.433-2.35-2.466-3.95-3.1c-0.023-0.009-0.048-0.018-0.075-0.025
			c0.709-3.413,0.501-6.713-0.625-9.9c0.163,0.087,0.33,0.162,0.5,0.225c1,0.333,1.983,0.6,2.95,0.8c0.6,0,1.217-0.033,1.85-0.1
			c0.633-0.067,1.15-0.333,1.55-0.8c0.167-0.167,0.217-0.333,0.15-0.5c-1.1,0.267-2.3,0.3-3.6,0.1
			c-1.167-0.167-2.217-0.567-3.15-1.2c-0.6-0.4-1.133-0.9-1.6-1.5c0-0.033,0-0.066,0-0.1c0.033-0.034,0.05-0.067,0.05-0.1
			s0.017-0.067,0.05-0.1c0-0.033,0-0.067,0-0.1c0-0.066-0.017-0.117-0.05-0.15l-0.05-0.1c-0.034-0.033-0.05-0.066-0.05-0.1
			c-0.178,0.012-0.319,0.062-0.425,0.15c-0.989-1.263-2.314-2.213-3.975-2.85c-0.66-0.267-1.327-0.492-2-0.675
			c-1.528-1.197-2.528-2.806-3-4.825c-0.567-2.367,0.083-4.45,1.95-6.25c0.7-0.667,1.4-1.333,2.1-2c0.233-0.233,0.5-0.45,0.8-0.65
			c-2.184,0.939-3.875,2.389-5.075,4.35c-3.796-0.702-6.838-2.751-9.125-6.15c-2.633-3.933-1.95-7.117,2.05-9.55
			c1.966-1.2,4.083-1.483,6.35-0.85c1.133,0.3,2.034,0.133,2.7-0.5c0.2-0.2,0.233-0.467,0.1-0.8c-0.8-1.934-0.3-3.583,1.5-4.95
			c4.566-3.533,9.316-3.533,14.25,0c1.333,0.933,2.6,1.883,3.8,2.85c0.2,0.133,0.417,0.217,0.65,0.25
			c-0.423-1.195-1.006-2.245-1.75-3.15c0.233-1.028,0.35-2.194,0.35-3.5c-0.066-2.8,0.717-5.333,2.35-7.6
			c0.967-1.367,2.2-2.5,3.7-3.4c2.6-1.534,4.883-3.317,6.85-5.35c0.167-0.2,0.2-0.467,0.1-0.8c-1.2-3.201-0.808-7.726,1.175-13.575
			c1.983-5.844,5.133-11.744,9.45-17.7c2.234-3.088,3.776-5.03,4.625-5.825c-0.394-0.524-0.869-1.158-1.425-1.9
			c-0.136,0.629-0.677,1.337-1.625,2.125c-2.209,1.831-5.109,6.223-8.7,13.175c-3.597,6.963-5.563,13.729-5.9,20.3
			c-0.1,1.434,0.133,2.8,0.7,4.1c-4.067,2.033-7.467,4.783-10.2,8.25c-0.467,0.6-0.883,1.267-1.25,2c-1.2,2.3-1.733,4.783-1.6,7.45
			c0.018,0.341,0.06,0.666,0.125,0.975c-1.057-0.89-2.332-1.582-3.825-2.075c-5.067-1.7-9.467-0.817-13.2,2.65
			c-1.567,1.467-2.25,3.267-2.05,5.4c-3.4-0.667-6.517,0.1-9.35,2.3c-2.633,2.033-3.35,4.583-2.15,7.65
			c1.433,3.7,3.883,6.55,7.35,8.55c0.6,0.333,1.25,0.567,1.95,0.7c0.433,0,0.883,0,1.35,0c0.037,0.002,0.07,0.002,0.1,0
			c-0.14,0.308-0.273,0.625-0.4,0.95c-0.2,0.534-0.267,1.117-0.2,1.75c0.207,2.095,0.982,3.82,2.325,5.175
			c-0.441-0.077-0.883-0.136-1.325-0.175c-1.733-0.133-3.317,0.233-4.75,1.1c-0.622,0.394-0.972,0.819-1.05,1.275
			c-2.388-1.349-4.771-0.741-7.15,1.825c-0.3,0.333-0.633,0.633-1,0.9c-1.233,1.033-2.667,1.567-4.3,1.6c3,0.433,5.7-0.45,8.1-2.65
			c1.767-1.633,3.417-1.434,4.95,0.6c2,2.667,2.883,5.733,2.65,9.2c-0.1,1.533-0.333,2.95-0.7,4.25L49.9-48.05z M29.2-17.6
			c1.167,0.434,2.35,0.75,3.55,0.95c1.267,0.2,2.483,0.467,3.65,0.8c0.934,0.1,1.8-0.1,2.6-0.6s1.233-1.216,1.3-2.15
			c0.034-0.367-0.133-0.65-0.5-0.85c-1.5,2.133-3.683,2.7-6.55,1.7c-1.3-0.433-2.583-0.9-3.85-1.4c-3.467-1.333-6.733-2.967-9.8-4.9
			c-2.233-1.4-3.4-3.284-3.5-5.65c-0.179,0.238-0.329,0.48-0.45,0.725c-1.036-2.066-2.835-3.691-5.4-4.875
			C6.683-35.483,4-37.983,2.2-41.35c-0.867-1.633-1.05-3.333-0.55-5.1c0.5-1.867,0.3-3.683-0.6-5.45
			c-1.851-3.801-1.092-6.993,2.275-9.575c0.067,0.14,0.15,0.273,0.25,0.4C3.383-60.742,3.475-60.351,3.85-59.9
			c0.667,0.833,1.517,1.383,2.55,1.65c0.733,0.2,1.483,0.267,2.25,0.2c0.533,0,1.05-0.1,1.55-0.3c0.153-0.054,0.287-0.121,0.4-0.2
			c-0.017,0.116-0.033,0.232-0.05,0.35c-0.633,4.467,0.233,8.55,2.6,12.25c1.3,2,3,3.617,5.1,4.85c0.867,0.5,1.783,0.817,2.75,0.95
			c0.3,0,0.6-0.017,0.9-0.05c0.243,0,0.468-0.05,0.675-0.15c0.165,0.538,0.356,1.071,0.575,1.6c0.667,1.6,1.783,2.733,3.35,3.4
			c0.167-0.633-0.15-1.35-0.95-2.15c-1.133-1.2-1.816-2.617-2.05-4.25c-0.433-3.133,0.067-6.083,1.5-8.85
			c0.667-1.3,1.417-2.5,2.25-3.6c-2.667,0.833-4.317,2.784-4.95,5.85c-0.513,2.442-0.496,4.809,0.05,7.1
			c-3.703-0.77-6.569-2.92-8.6-6.45c-1.633-2.767-2.367-5.783-2.2-9.05c0.1-2.667,1.184-4.75,3.25-6.25
			c1.733-1.267,3.667-2.1,5.8-2.5c3.2-0.6,6.3-1.55,9.3-2.85c1.733-0.767,2.767-2.033,3.1-3.8c0.067-0.434,0.133-0.867,0.2-1.3
			c-2.434,3.7-6.067,5.784-10.9,6.25c-1.2,0.1-2.383,0.284-3.55,0.55c-4.147,0.893-6.755,3.118-7.825,6.675L10.9-60
			c-1.3,0.733-2.717,0.95-4.25,0.65c-0.9-0.167-1.683-0.566-2.35-1.2l-0.025-0.025L4.3-60.6c0.067-0.066,0.133-0.133,0.2-0.2
			c0.033-0.034,0.067-0.083,0.1-0.15C4.067-65.417,5.683-69.1,9.45-72c0.9-0.7,1.783-1.383,2.65-2.05
			c5.068-4.01,10.693-6.177,16.875-6.5c-3.377,0.277-6.502,1.727-9.375,4.35c-1.267,1.133-2.333,2.383-3.2,3.75
			c-0.39,0.629-0.565,1.212-0.525,1.75c-2.208-0.101-4.25,0.432-6.125,1.6c-1.5,0.934-2.333,1.967-2.5,3.1
			c1.633-1.067,3.4-1.983,5.3-2.75c2-0.8,3.967-0.717,5.9,0.25c0.767,0.4,1.483,0.417,2.15,0.05
			c-0.751-1.208-2.093-1.933-4.025-2.175c1.483-2.615,3.574-4.756,6.275-6.425c2.867-1.8,6-2.483,9.4-2.05
			c0.813,0.11,1.539,0.043,2.175-0.2c0.462,1.023,1.22,1.89,2.275,2.6c0.4,0.267,0.8,0.483,1.2,0.65c0-1.1-0.533-2.25-1.6-3.45
			c-0.224-0.271-0.416-0.554-0.575-0.85c0.246-0.004,0.305-0.088,0.175-0.25c-0.153-0.137-0.312-0.27-0.475-0.4
			c-0.216-0.573-0.325-1.189-0.325-1.85c0.033-2.933,1.533-4.617,4.5-5.05c0.7-0.133,1.316-0.367,1.85-0.7
			c-3.633-1.2-6.017-0.017-7.15,3.55c-0.292,1.005-0.425,2.055-0.4,3.15c-1.48-0.646-3.213-0.846-5.2-0.6
			c-9.4,1.2-17.133,5.383-23.2,12.55C3.7-67.883,2.867-65.467,3-62.7c0.003,0.053,0.012,0.104,0.025,0.15
			c-1.366-0.062-2.44,0.705-3.225,2.3c-1.9,3.9-1.75,7.833,0.45,11.8c0.367,0.667,0.45,1.4,0.25,2.2
			c-0.9,3.333-0.117,6.233,2.35,8.7c2,2.033,4.267,3.767,6.8,5.2c2.058,1.146,3.983,2.463,5.775,3.95
			c-0.336,1.218,0.072,2.501,1.225,3.85c1.767,2.1,3.95,3.65,6.55,4.65C25.2-19.1,27.2-18.333,29.2-17.6z M34.35-31.55
			c0.033-0.067,0.066-0.133,0.1-0.2c0.033-0.067,0.05-0.133,0.05-0.2c-0.467-1.433-0.4-2.883,0.2-4.35
			c0.767-1.833,2.2-2.684,4.3-2.55c0.267,0,0.517-0.05,0.75-0.15c-2.5-1.367-4.433-0.75-5.8,1.85c-0.567,1.1-0.8,2.267-0.7,3.5
			c0.067,0.933,0.367,1.683,0.9,2.25C34.217-31.467,34.283-31.517,34.35-31.55z M21.7-70.35c-0.167,0.467-0.1,0.8,0.2,1
			c1.3-1.933,2.867-3.683,4.7-5.25c1.133-0.967,2.417-1.483,3.85-1.55c1.7-0.067,3.35-0.2,4.95-0.4c0.067,0,0.117-0.034,0.15-0.1
			c-0.2-0.7-0.716-1.1-1.55-1.2c-4.467-0.467-8.033,1.067-10.7,4.6C22.6-72.35,22.067-71.383,21.7-70.35z M35.3-71.35
			c-0.066,0.033-0.1,0.083-0.1,0.15c-0.034,0.1-0.05,0.2-0.05,0.3c1.418,0,2.835,0.167,4.25,0.5c0.443,0.523,0.994,0.973,1.65,1.35
			c0.8,0.433,1.617,0.733,2.45,0.9c0.233,0,0.483,0,0.75,0c1.167,0,2.333-0.05,3.5-0.15c1.233-0.1,2.217-0.6,2.95-1.5
			c0.133-0.167,0.15-0.333,0.05-0.5c-2.367,0.367-4.917,0.4-7.65,0.1c-1.3-0.167-2.25-0.8-2.85-1.9c-0.3-0.566-0.533-1.167-0.7-1.8
			c-0.333-1.167-0.4-2.317-0.2-3.45c-0.367-0.1-0.667,0.067-0.9,0.5c-0.434,0.9-0.567,1.883-0.4,2.95
			c0.034,0.267,0.083,0.55,0.15,0.85c0.087,0.461,0.212,0.895,0.375,1.3c-0.888-0.073-1.78-0.04-2.675,0.1
			c-0.167,0.033-0.316,0.066-0.45,0.1c-0.034,0.033-0.067,0.066-0.1,0.1C35.317-71.417,35.3-71.383,35.3-71.35z M34.05-80.45
			c0.021,0.106,0.045,0.215,0.075,0.325c-1.232-0.296-2.44-0.455-3.625-0.475c0.733-0.011,1.466,0.005,2.2,0.05
			C33.148-80.52,33.598-80.487,34.05-80.45z M145-103.85c0.333-0.4,0.3-1.117-0.1-2.15c-1.433-3.5-3.816-6.233-7.15-8.2
			c-3.267-1.933-6.75-2.767-10.45-2.5c-0.466,0.034-0.783,0.167-0.95,0.4c5.5,0.333,10.267,2.4,14.3,6.2
			c1.7,1.567,2.9,3.434,3.6,5.6C144.383-104.133,144.633-103.917,145-103.85z M115.85-101.9c-1.2-1.4-2.883-2.167-5.05-2.3
			c-3.466-0.233-6.867,0.15-10.2,1.15c-1.8,0.533-3.333,1.433-4.6,2.7c-0.3,0.3-0.3,0.533,0,0.7c2.4-1.667,5.133-2.783,8.2-3.35
			c3.033-0.567,6.017-0.4,8.95,0.5C114.117-102.2,115.017-102,115.85-101.9z M121.45-113c-8.1-2.333-15.617-1.217-22.55,3.35
			c-1.767,1.133-3.316,2.5-4.65,4.1c-0.9,1.1-1.217,2.133-0.95,3.1c2.567-3.867,6.05-6.7,10.45-8.5c3.933-1.6,8.05-2.267,12.35-2
			C118.033-112.85,119.817-112.867,121.45-113z M117.7-106.15c1.466,0.267,2.783,0.3,3.95,0.1c-6.3-2.6-13.033-2.983-20.2-1.15
			c-2.267,0.567-4.267,1.6-6,3.1c-1.2,1.067-1.684,2.184-1.45,3.35c2.6-3.567,6.217-5.567,10.85-6
			C109.183-107.183,113.467-106.983,117.7-106.15z"/>
	</g>
</symbol>
<g id="fundo">
</g>
<g id="caixas_x5F_de_x5F_cor">
</g>
<g id="Layer_8">
</g>
<g id="ilustra">
</g>
<g id="texto">
	<g>
		<rect x="71.797" y="121.85" fill="none" width="364.474" height="579.054"/>
		<text transform="matrix(1 0 0 1 71.7969 134.0098)"><tspan x="0" y="0" fill="#211D1E" font-family="'OpenSans'" font-size="16">campo</tspan><tspan x="51.268" y="0" fill="#211D1E" font-family="'OpenSans'" font-size="16" letter-spacing="4"> </tspan><tspan x="59.646" y="0" fill="#211D1E" font-family="'OpenSans'" font-size="16">tão</tspan><tspan x="84.098" y="0" fill="#211D1E" font-family="'OpenSans'" font-size="16" letter-spacing="4"> </tspan><tspan x="92.478" y="0" fill="#211D1E" font-family="'OpenSans'" font-size="16">estável</tspan><tspan x="145.232" y="0" fill="#211D1E" font-family="'OpenSans'" font-size="16" letter-spacing="4"> </tspan><tspan x="153.612" y="0" fill="#211D1E" font-family="'OpenSans'" font-size="16">como</tspan><tspan x="195.761" y="0" fill="#211D1E" font-family="'OpenSans'" font-size="16" letter-spacing="4"> </tspan><tspan x="204.141" y="0" fill="#211D1E" font-family="'OpenSans'" font-size="16">a</tspan><tspan x="213.119" y="0" fill="#211D1E" font-family="'OpenSans'" font-size="16" letter-spacing="4"> </tspan><tspan x="221.499" y="0" fill="#211D1E" font-family="'OpenSans'" font-size="16">ciência,</tspan><tspan x="277.084" y="0" fill="#211D1E" font-family="'OpenSans'" font-size="16" letter-spacing="4"> </tspan><tspan x="285.464" y="0" fill="#211D1E" font-family="'OpenSans'" font-size="16">ainda</tspan><tspan x="327.332" y="0" fill="#211D1E" font-family="'OpenSans'" font-size="16" letter-spacing="4"> </tspan><tspan x="335.712" y="0" fill="#211D1E" font-family="'OpenSans'" font-size="16">que </tspan><tspan x="0" y="24" fill="#211D1E" font-family="'OpenSans'" font-size="16">sempre</tspan><tspan x="57.285" y="24" fill="#211D1E" font-family="'OpenSans'" font-size="16" letter-spacing="45"> </tspan><tspan x="106.895" y="24" fill="#211D1E" font-family="'OpenSans'" font-size="16">provisório,</tspan><tspan x="187.299" y="24" fill="#211D1E" font-family="'OpenSans'" font-size="16" letter-spacing="45"> </tspan><tspan x="236.909" y="24" fill="#211D1E" font-family="'OpenSans'" font-size="16">se</tspan><tspan x="253.678" y="24" fill="#211D1E" font-family="'OpenSans'" font-size="16" letter-spacing="45"> </tspan><tspan x="303.288" y="24" fill="#211D1E" font-family="'OpenSans'" font-size="16">constrói </tspan><tspan x="0" y="48" fill="#211D1E" font-family="'OpenSans'" font-size="16">inescapavelmente</tspan><tspan x="136.319" y="48" fill="#211D1E" font-family="'OpenSans'" font-size="16" letter-spacing="12"> </tspan><tspan x="153.441" y="48" fill="#211D1E" font-family="'OpenSans'" font-size="16">sobre</tspan><tspan x="196.451" y="48" fill="#211D1E" font-family="'OpenSans'" font-size="16" letter-spacing="12"> </tspan><tspan x="213.573" y="48" fill="#211D1E" font-family="'OpenSans'" font-size="16">uma</tspan><tspan x="247.415" y="48" fill="#211D1E" font-family="'OpenSans'" font-size="16" letter-spacing="12"> </tspan><tspan x="264.537" y="48" fill="#211D1E" font-family="'OpenSans'" font-size="16">matéria</tspan><tspan x="322.98" y="48" fill="#211D1E" font-family="'OpenSans'" font-size="16" letter-spacing="12"> </tspan><tspan x="340.103" y="48" fill="#211D1E" font-family="'OpenSans'" font-size="16">tão </tspan><tspan x="0" y="72" fill="#211D1E" font-family="'OpenSans'" font-size="16">instável</tspan><tspan x="57.726" y="72" fill="#211D1E" font-family="'OpenSans'" font-size="16" letter-spacing="12"> </tspan><tspan x="74.068" y="72" fill="#211D1E" font-family="'OpenSans'" font-size="16">e</tspan><tspan x="83.125" y="72" fill="#211D1E" font-family="'OpenSans'" font-size="16" letter-spacing="12"> </tspan><tspan x="99.467" y="72" fill="#211D1E" font-family="'OpenSans'" font-size="16">sujeita</tspan><tspan x="149.098" y="72" fill="#211D1E" font-family="'OpenSans'" font-size="16" letter-spacing="12"> </tspan><tspan x="165.44" y="72" fill="#211D1E" font-family="'OpenSans'" font-size="16">ao</tspan><tspan x="184.162" y="72" fill="#211D1E" font-family="'OpenSans'" font-size="16" letter-spacing="12"> </tspan><tspan x="200.505" y="72" fill="#211D1E" font-family="'OpenSans'" font-size="16">equívoco</tspan><tspan x="268.754" y="72" fill="#211D1E" font-family="'OpenSans'" font-size="16" letter-spacing="12"> </tspan><tspan x="285.097" y="72" fill="#211D1E" font-family="'OpenSans'" font-size="16">quanto</tspan><tspan x="339.233" y="72" fill="#211D1E" font-family="'OpenSans'" font-size="16" letter-spacing="12"> </tspan><tspan x="355.575" y="72" fill="#211D1E" font-family="'OpenSans'" font-size="16">a </tspan><tspan x="0" y="96" fill="#211D1E" font-family="'OpenSans'" font-size="16">linguagem,</tspan><tspan x="82.745" y="96" fill="#211D1E" font-family="'OpenSans'" font-size="16" letter-spacing="2"> </tspan><tspan x="89.7" y="96" fill="#211D1E" font-family="'OpenSans'" font-size="16">outra</tspan><tspan x="130.663" y="96" fill="#211D1E" font-family="'OpenSans'" font-size="16" letter-spacing="2"> </tspan><tspan x="137.618" y="96" fill="#211D1E" font-family="'OpenSans'" font-size="16">questão</tspan><tspan x="198.623" y="96" fill="#211D1E" font-family="'OpenSans'" font-size="16" letter-spacing="2"> </tspan><tspan x="205.578" y="96" fill="#211D1E" font-family="'OpenSans'" font-size="16">torna-se</tspan><tspan x="268.539" y="96" fill="#211D1E" font-family="'OpenSans'" font-size="16" letter-spacing="2"> </tspan><tspan x="275.494" y="96" fill="#211D1E" font-family="'OpenSans'" font-size="16">importante: </tspan><tspan x="0" y="120" fill="#211D1E" font-family="'OpenSans'" font-size="16">qual</tspan><tspan x="32.891" y="120" fill="#211D1E" font-family="'OpenSans'" font-size="16" letter-spacing="2"> </tspan><tspan x="39.836" y="120" fill="#211D1E" font-family="'OpenSans'" font-size="16">o</tspan><tspan x="49.58" y="120" fill="#211D1E" font-family="'OpenSans'" font-size="16" letter-spacing="2"> </tspan><tspan x="56.525" y="120" fill="#211D1E" font-family="'OpenSans'" font-size="16">papel</tspan><tspan x="98.457" y="120" fill="#211D1E" font-family="'OpenSans'" font-size="16" letter-spacing="2"> </tspan><tspan x="105.402" y="120" fill="#211D1E" font-family="'OpenSans'" font-size="16">tanto</tspan><tspan x="145.482" y="120" fill="#211D1E" font-family="'OpenSans'" font-size="16" letter-spacing="2"> </tspan><tspan x="152.428" y="120" fill="#211D1E" font-family="'OpenSans'" font-size="16">da</tspan><tspan x="171.291" y="120" fill="#211D1E" font-family="'OpenSans'" font-size="16" letter-spacing="2"> </tspan><tspan x="178.236" y="120" fill="#211D1E" font-family="'OpenSans'" font-size="16">comunicação</tspan><tspan x="277.663" y="120" fill="#211D1E" font-family="'OpenSans'" font-size="16" letter-spacing="2"> </tspan><tspan x="284.608" y="120" fill="#211D1E" font-family="'OpenSans'" font-size="16">quanto</tspan><tspan x="338.745" y="120" fill="#211D1E" font-family="'OpenSans'" font-size="16" letter-spacing="2"> </tspan><tspan x="345.69" y="120" fill="#211D1E" font-family="'OpenSans'" font-size="16">da </tspan><tspan x="0" y="144" fill="#211D1E" font-family="'OpenSans'" font-size="16">educação</tspan><tspan x="71.937" y="144" fill="#211D1E" font-family="'OpenSans'" font-size="16" letter-spacing="44"> </tspan><tspan x="120.819" y="144" fill="#211D1E" font-family="'OpenSans'" font-size="16">nesses</tspan><tspan x="171.972" y="144" fill="#211D1E" font-family="'OpenSans'" font-size="16" letter-spacing="44"> </tspan><tspan x="220.854" y="144" fill="#211D1E" font-family="'OpenSans'" font-size="16">processos</tspan><tspan x="296.73" y="144" fill="#211D1E" font-family="'OpenSans'" font-size="16" letter-spacing="44"> </tspan><tspan x="345.612" y="144" fill="#211D1E" font-family="'OpenSans'" font-size="16">de </tspan><tspan x="0" y="168" fill="#211D1E" font-family="'OpenSans'" font-size="16">instabilidade/estabilidade?</tspan><tspan x="0" y="204" fill="#211D1E" font-family="'OpenSans'" font-size="16">Quando</tspan><tspan x="60.949" y="204" fill="#211D1E" font-family="'OpenSans'" font-size="16" letter-spacing="2"> </tspan><tspan x="67.371" y="204" fill="#211D1E" font-family="'OpenSans'" font-size="16">nos</tspan><tspan x="94.729" y="204" fill="#211D1E" font-family="'OpenSans'" font-size="16" letter-spacing="2"> </tspan><tspan x="101.15" y="204" fill="#211D1E" font-family="'OpenSans'" font-size="16">perguntamos</tspan><tspan x="202.476" y="204" fill="#211D1E" font-family="'OpenSans'" font-size="16" letter-spacing="2"> </tspan><tspan x="208.897" y="204" fill="#211D1E" font-family="'OpenSans'" font-size="16">por</tspan><tspan x="235.138" y="204" fill="#211D1E" font-family="'OpenSans'" font-size="16" letter-spacing="2"> </tspan><tspan x="241.56" y="204" fill="#211D1E" font-family="'OpenSans'" font-size="16">isso,</tspan><tspan x="274.858" y="204" fill="#211D1E" font-family="'OpenSans'" font-size="16" letter-spacing="2"> </tspan><tspan x="281.28" y="204" fill="#211D1E" font-family="'OpenSans'" font-size="16">vamos</tspan><tspan x="330.774" y="204" fill="#211D1E" font-family="'OpenSans'" font-size="16" letter-spacing="2"> </tspan><tspan x="337.196" y="204" fill="#211D1E" font-family="'OpenSans'" font-size="16">nos </tspan><tspan x="0" y="228" fill="#211D1E" font-family="'OpenSans'" font-size="16">perguntar</tspan><tspan x="75.517" y="228" fill="#211D1E" font-family="'OpenSans'" font-size="16" letter-spacing="14"> </tspan><tspan x="94.183" y="228" fill="#211D1E" font-family="'OpenSans'" font-size="16">pelas</tspan><tspan x="133.942" y="228" fill="#211D1E" font-family="'OpenSans'" font-size="16" letter-spacing="14"> </tspan><tspan x="152.608" y="228" fill="#211D1E" font-family="'OpenSans'" font-size="16">relações</tspan><tspan x="215.592" y="228" fill="#211D1E" font-family="'OpenSans'" font-size="16" letter-spacing="14"> </tspan><tspan x="234.258" y="228" fill="#211D1E" font-family="'OpenSans'" font-size="16">de</tspan><tspan x="253.199" y="228" fill="#211D1E" font-family="'OpenSans'" font-size="16" letter-spacing="14"> </tspan><tspan x="271.865" y="228" fill="#211D1E" font-family="'OpenSans'" font-size="16">poder</tspan><tspan x="317.046" y="228" fill="#211D1E" font-family="'OpenSans'" font-size="16" letter-spacing="14"> </tspan><tspan x="335.712" y="228" fill="#211D1E" font-family="'OpenSans'" font-size="16">que </tspan><tspan x="0" y="252" fill="#211D1E" font-family="'OpenSans'" font-size="16">atravessam</tspan><tspan x="86.815" y="252" fill="#211D1E" font-family="'OpenSans'" font-size="16" letter-spacing="10"> </tspan><tspan x="101.482" y="252" fill="#211D1E" font-family="'OpenSans'" font-size="16">relações</tspan><tspan x="164.466" y="252" fill="#211D1E" font-family="'OpenSans'" font-size="16" letter-spacing="10"> </tspan><tspan x="179.132" y="252" fill="#211D1E" font-family="'OpenSans'" font-size="16">de</tspan><tspan x="198.073" y="252" fill="#211D1E" font-family="'OpenSans'" font-size="16" letter-spacing="10"> </tspan><tspan x="212.739" y="252" fill="#211D1E" font-family="'OpenSans'" font-size="16">ensino</tspan><tspan x="263.181" y="252" fill="#211D1E" font-family="'OpenSans'" font-size="16" letter-spacing="10"> </tspan><tspan x="277.847" y="252" fill="#211D1E" font-family="'OpenSans'" font-size="16">e</tspan><tspan x="286.903" y="252" fill="#211D1E" font-family="'OpenSans'" font-size="16" letter-spacing="10"> </tspan><tspan x="301.569" y="252" fill="#211D1E" font-family="'OpenSans'" font-size="16">relações </tspan><tspan x="0" y="276" fill="#211D1E" font-family="'OpenSans'" font-size="16">educacionais,</tspan><tspan x="101.806" y="276" fill="#211D1E" font-family="'OpenSans'" font-size="16"> </tspan><tspan x="105.531" y="276" fill="#211D1E" font-family="'OpenSans'" font-size="16">relações</tspan><tspan x="168.515" y="276" fill="#211D1E" font-family="'OpenSans'" font-size="16"> </tspan><tspan x="172.24" y="276" fill="#211D1E" font-family="'OpenSans'" font-size="16">entre</tspan><tspan x="212.594" y="276" fill="#211D1E" font-family="'OpenSans'" font-size="16"> </tspan><tspan x="216.319" y="276" fill="#211D1E" font-family="'OpenSans'" font-size="16">ciência</tspan><tspan x="267.902" y="276" fill="#211D1E" font-family="'OpenSans'" font-size="16"> </tspan><tspan x="271.628" y="276" fill="#211D1E" font-family="'OpenSans'" font-size="16">e</tspan><tspan x="280.685" y="276" fill="#211D1E" font-family="'OpenSans'" font-size="16"> </tspan><tspan x="284.41" y="276" fill="#211D1E" font-family="'OpenSans'" font-size="16">sociedade, </tspan><tspan x="0" y="300" fill="#211D1E" font-family="'OpenSans'" font-size="16">ciência</tspan><tspan x="51.583" y="300" fill="#211D1E" font-family="'OpenSans'" font-size="16" letter-spacing="2"> </tspan><tspan x="58.71" y="300" fill="#211D1E" font-family="'OpenSans'" font-size="16">e</tspan><tspan x="67.767" y="300" fill="#211D1E" font-family="'OpenSans'" font-size="16" letter-spacing="2"> </tspan><tspan x="74.894" y="300" fill="#211D1E" font-family="'OpenSans'" font-size="16">público</tspan><tspan x="130.259" y="300" fill="#211D1E" font-family="'OpenSans'" font-size="16" letter-spacing="2"> </tspan><tspan x="137.386" y="300" fill="#211D1E" font-family="'OpenSans'" font-size="16">de</tspan><tspan x="156.327" y="300" fill="#211D1E" font-family="'OpenSans'" font-size="16" letter-spacing="2"> </tspan><tspan x="163.454" y="300" fill="#211D1E" font-family="'OpenSans'" font-size="16">modo</tspan><tspan x="207.789" y="300" fill="#211D1E" font-family="'OpenSans'" font-size="16" letter-spacing="2"> </tspan><tspan x="214.916" y="300" fill="#211D1E" font-family="'OpenSans'" font-size="16">geral,</tspan><tspan x="256.537" y="300" fill="#211D1E" font-family="'OpenSans'" font-size="16" letter-spacing="2"> </tspan><tspan x="263.664" y="300" fill="#211D1E" font-family="'OpenSans'" font-size="16">que,</tspan><tspan x="296.508" y="300" fill="#211D1E" font-family="'OpenSans'" font-size="16" letter-spacing="2"> </tspan><tspan x="303.635" y="300" fill="#211D1E" font-family="'OpenSans'" font-size="16">a</tspan><tspan x="312.612" y="300" fill="#211D1E" font-family="'OpenSans'" font-size="16" letter-spacing="2"> </tspan><tspan x="319.739" y="300" fill="#211D1E" font-family="'OpenSans'" font-size="16">nosso </tspan><tspan x="0" y="324" fill="#211D1E" font-family="'OpenSans'" font-size="16">ver,</tspan><tspan x="27.766" y="324" fill="#211D1E" font-family="'OpenSans'" font-size="16" letter-spacing="4"> </tspan><tspan x="36.111" y="324" fill="#211D1E" font-family="'OpenSans'" font-size="16">incluem</tspan><tspan x="95.883" y="324" fill="#211D1E" font-family="'OpenSans'" font-size="16" letter-spacing="4"> </tspan><tspan x="104.229" y="324" fill="#211D1E" font-family="'OpenSans'" font-size="16">a</tspan><tspan x="113.207" y="324" fill="#211D1E" font-family="'OpenSans'" font-size="16" letter-spacing="4"> </tspan><tspan x="121.554" y="324" fill="#211D1E" font-family="'OpenSans'" font-size="16">instituição</tspan><tspan x="199.324" y="324" fill="#211D1E" font-family="'OpenSans'" font-size="16" letter-spacing="4"> </tspan><tspan x="207.671" y="324" fill="#211D1E" font-family="'OpenSans'" font-size="16">escolar;</tspan><tspan x="265.936" y="324" fill="#211D1E" font-family="'OpenSans'" font-size="16" letter-spacing="4"> </tspan><tspan x="274.282" y="324" fill="#211D1E" font-family="'OpenSans'" font-size="16">relações</tspan><tspan x="337.266" y="324" fill="#211D1E" font-family="'OpenSans'" font-size="16" letter-spacing="4"> </tspan><tspan x="345.612" y="324" fill="#211D1E" font-family="'OpenSans'" font-size="16">de </tspan><tspan x="0" y="348" fill="#211D1E" font-family="'OpenSans'" font-size="16">poder</tspan><tspan x="45.182" y="348" fill="#211D1E" font-family="'OpenSans'" font-size="16" letter-spacing="5"> </tspan><tspan x="54.72" y="348" fill="#211D1E" font-family="'OpenSans'" font-size="16">que</tspan><tspan x="83.562" y="348" fill="#211D1E" font-family="'OpenSans'" font-size="16" letter-spacing="5"> </tspan><tspan x="93.1" y="348" fill="#211D1E" font-family="'OpenSans'" font-size="16">produzem</tspan><tspan x="170.708" y="348" fill="#211D1E" font-family="'OpenSans'" font-size="16" letter-spacing="5"> </tspan><tspan x="180.247" y="348" fill="#211D1E" font-family="'OpenSans'" font-size="16">partição</tspan><tspan x="241.996" y="348" fill="#211D1E" font-family="'OpenSans'" font-size="16" letter-spacing="5"> </tspan><tspan x="251.534" y="348" fill="#211D1E" font-family="'OpenSans'" font-size="16">e</tspan><tspan x="260.591" y="348" fill="#211D1E" font-family="'OpenSans'" font-size="16" letter-spacing="5"> </tspan><tspan x="270.129" y="348" fill="#211D1E" font-family="'OpenSans'" font-size="16">alocação</tspan><tspan x="336.074" y="348" fill="#211D1E" font-family="'OpenSans'" font-size="16" letter-spacing="5"> </tspan><tspan x="345.612" y="348" fill="#211D1E" font-family="'OpenSans'" font-size="16">de </tspan><tspan x="0" y="372" fill="#211D1E" font-family="'OpenSans'" font-size="16">pessoas</tspan><tspan x="60.802" y="372" fill="#211D1E" font-family="'OpenSans'" font-size="16" letter-spacing="8"> </tspan><tspan x="73.308" y="372" fill="#211D1E" font-family="'OpenSans'" font-size="16">em</tspan><tspan x="97.326" y="372" fill="#211D1E" font-family="'OpenSans'" font-size="16" letter-spacing="8"> </tspan><tspan x="109.832" y="372" fill="#211D1E" font-family="'OpenSans'" font-size="16">posições-sujeito</tspan><tspan x="231.135" y="372" fill="#211D1E" font-family="'OpenSans'" font-size="16" letter-spacing="8"> </tspan><tspan x="243.641" y="372" fill="#211D1E" font-family="'OpenSans'" font-size="16">em</tspan><tspan x="267.659" y="372" fill="#211D1E" font-family="'OpenSans'" font-size="16" letter-spacing="8"> </tspan><tspan x="280.165" y="372" fill="#211D1E" font-family="'OpenSans'" font-size="16">relação</tspan><tspan x="335.357" y="372" fill="#211D1E" font-family="'OpenSans'" font-size="16" letter-spacing="8"> </tspan><tspan x="347.862" y="372" fill="#211D1E" font-family="'OpenSans'" font-size="16">às </tspan><tspan x="0" y="396" fill="#211D1E" font-family="'OpenSans'" font-size="16">próprias possibilidades de dizer...</tspan><tspan x="0" y="432" fill="#211D1E" font-family="'OpenSans'" font-size="16">O</tspan><tspan x="12.541" y="432" fill="#211D1E" font-family="'OpenSans'" font-size="16"> </tspan><tspan x="17.222" y="432" fill="#211D1E" font-family="'OpenSans'" font-size="16">que</tspan><tspan x="46.063" y="432" fill="#211D1E" font-family="'OpenSans'" font-size="16"> </tspan><tspan x="50.744" y="432" fill="#211D1E" font-family="'OpenSans'" font-size="16">busco</tspan><tspan x="95.684" y="432" fill="#211D1E" font-family="'OpenSans'" font-size="16"> </tspan><tspan x="100.364" y="432" fill="#211D1E" font-family="'OpenSans'" font-size="16">pelo</tspan><tspan x="133.176" y="432" fill="#211D1E" font-family="'OpenSans'" font-size="16"> </tspan><tspan x="137.856" y="432" fill="#211D1E" font-family="'OpenSans'" font-size="16">menos</tspan><tspan x="189.233" y="432" fill="#211D1E" font-family="'OpenSans'" font-size="16"> </tspan><tspan x="193.914" y="432" fill="#211D1E" font-family="'OpenSans'" font-size="16">deixar</tspan><tspan x="241.035" y="432" fill="#211D1E" font-family="'OpenSans'" font-size="16"> </tspan><tspan x="245.716" y="432" fill="#211D1E" font-family="'OpenSans'" font-size="16">esboçado</tspan><tspan x="318.418" y="432" fill="#211D1E" font-family="'OpenSans'" font-size="16"> </tspan><tspan x="323.099" y="432" fill="#211D1E" font-family="'OpenSans'" font-size="16">neste </tspan><tspan x="0" y="456" fill="#211D1E" font-family="'OpenSans'" font-size="16">ensai</tspan><tspan x="39.775" y="456" fill="#211D1E" font-family="'OpenSans'" font-size="14">o</tspan><tspan x="48.302" y="456" fill="#211D1E" font-family="'OpenSans'" font-size="14" letter-spacing="6"> </tspan><tspan x="58.876" y="456" fill="#211D1E" font-family="'OpenSans'" font-size="16">é</tspan><tspan x="67.933" y="456" fill="#211D1E" font-family="'OpenSans'" font-size="16" letter-spacing="7"> </tspan><tspan x="80.018" y="456" fill="#211D1E" font-family="'OpenSans'" font-size="16">que</tspan><tspan x="108.859" y="456" fill="#211D1E" font-family="'OpenSans'" font-size="16" letter-spacing="7"> </tspan><tspan x="120.944" y="456" fill="#211D1E" font-family="'OpenSans'" font-size="16">questões</tspan><tspan x="189.74" y="456" fill="#211D1E" font-family="'OpenSans'" font-size="16" letter-spacing="7"> </tspan><tspan x="201.825" y="456" fill="#211D1E" font-family="'OpenSans'" font-size="16">como</tspan><tspan x="243.974" y="456" fill="#211D1E" font-family="'OpenSans'" font-size="16" letter-spacing="7"> </tspan><tspan x="256.058" y="456" fill="#211D1E" font-family="'OpenSans'" font-size="16">essa</tspan><tspan x="289.519" y="456" fill="#211D1E" font-family="'OpenSans'" font-size="16" letter-spacing="7"> </tspan><tspan x="301.604" y="456" fill="#211D1E" font-family="'OpenSans'" font-size="16">colocam </tspan><tspan x="0" y="480" fill="#211D1E" font-family="'OpenSans'" font-size="16">necessariamente</tspan><tspan x="128.536" y="480" fill="#211D1E" font-family="'OpenSans'" font-size="16" letter-spacing="2"> </tspan><tspan x="134.982" y="480" fill="#211D1E" font-family="'OpenSans'" font-size="16">os</tspan><tspan x="152.439" y="480" fill="#211D1E" font-family="'OpenSans'" font-size="16" letter-spacing="2"> </tspan><tspan x="158.887" y="480" fill="#211D1E" font-family="'OpenSans'" font-size="16">campos</tspan><tspan x="217.866" y="480" fill="#211D1E" font-family="'OpenSans'" font-size="16" letter-spacing="2"> </tspan><tspan x="224.313" y="480" fill="#211D1E" font-family="'OpenSans'" font-size="16">da</tspan><tspan x="243.177" y="480" fill="#211D1E" font-family="'OpenSans'" font-size="16" letter-spacing="2"> </tspan><tspan x="249.623" y="480" fill="#211D1E" font-family="'OpenSans'" font-size="16">comunicação</tspan><tspan x="349.05" y="480" fill="#211D1E" font-family="'OpenSans'" font-size="16" letter-spacing="2"> </tspan><tspan x="355.497" y="480" fill="#211D1E" font-family="'OpenSans'" font-size="16">e </tspan><tspan x="0" y="504" fill="#211D1E" font-family="'OpenSans'" font-size="16">da</tspan><tspan x="18.863" y="504" fill="#211D1E" font-family="'OpenSans'" font-size="16" letter-spacing="4"> </tspan><tspan x="27.785" y="504" fill="#211D1E" font-family="'OpenSans'" font-size="16">educação</tspan><tspan x="99.722" y="504" fill="#211D1E" font-family="'OpenSans'" font-size="16" letter-spacing="4"> </tspan><tspan x="108.644" y="504" fill="#211D1E" font-family="'OpenSans'" font-size="16">científicas</tspan><tspan x="183.217" y="504" fill="#211D1E" font-family="'OpenSans'" font-size="16" letter-spacing="4"> </tspan><tspan x="192.139" y="504" fill="#211D1E" font-family="'OpenSans'" font-size="16">em</tspan><tspan x="216.158" y="504" fill="#211D1E" font-family="'OpenSans'" font-size="16" letter-spacing="4"> </tspan><tspan x="225.08" y="504" fill="#211D1E" font-family="'OpenSans'" font-size="16">diálogo</tspan><tspan x="280.53" y="504" fill="#211D1E" font-family="'OpenSans'" font-size="16" letter-spacing="4"> </tspan><tspan x="289.452" y="504" fill="#211D1E" font-family="'OpenSans'" font-size="16">sob</tspan><tspan x="316.794" y="504" fill="#211D1E" font-family="'OpenSans'" font-size="16" letter-spacing="4"> </tspan><tspan x="325.716" y="504" fill="#211D1E" font-family="'OpenSans'" font-size="16">certo </tspan><tspan x="0" y="528" fill="#211D1E" font-family="'OpenSans'" font-size="16">ponto</tspan><tspan x="45.002" y="528" fill="#211D1E" font-family="'OpenSans'" font-size="16" letter-spacing="2"> </tspan><tspan x="51.367" y="528" fill="#211D1E" font-family="'OpenSans'" font-size="16">de</tspan><tspan x="70.309" y="528" fill="#211D1E" font-family="'OpenSans'" font-size="16" letter-spacing="2"> </tspan><tspan x="76.675" y="528" fill="#211D1E" font-family="'OpenSans'" font-size="16">vista.</tspan><tspan x="115.654" y="528" fill="#211D1E" font-family="'OpenSans'" font-size="16" letter-spacing="2"> </tspan><tspan x="122.021" y="528" fill="#211D1E" font-family="'OpenSans'" font-size="16">Por</tspan><tspan x="148.089" y="528" fill="#211D1E" font-family="'OpenSans'" font-size="16" letter-spacing="2"> </tspan><tspan x="154.454" y="528" fill="#211D1E" font-family="'OpenSans'" font-size="16">questão</tspan><tspan x="215.46" y="528" fill="#211D1E" font-family="'OpenSans'" font-size="16" letter-spacing="2"> </tspan><tspan x="221.825" y="528" fill="#211D1E" font-family="'OpenSans'" font-size="16">de</tspan><tspan x="240.767" y="528" fill="#211D1E" font-family="'OpenSans'" font-size="16" letter-spacing="2"> </tspan><tspan x="247.133" y="528" fill="#211D1E" font-family="'OpenSans'" font-size="16">espaço,</tspan><tspan x="304.208" y="528" fill="#211D1E" font-family="'OpenSans'" font-size="16" letter-spacing="2"> </tspan><tspan x="310.574" y="528" fill="#211D1E" font-family="'OpenSans'" font-size="16">aponto </tspan><tspan x="0" y="552" fill="#211D1E" font-family="'OpenSans'" font-size="16">apenas um dos aspectos em que esse diálogo, </tspan></text>
	</g>
	<g>
		<rect x="570.163" y="121.85" fill="none" width="364.474" height="579.054"/>
		<text transform="matrix(1 0 0 1 570.1631 134.0098)" fill="#211D1E" font-family="'OpenSans'" font-size="16">na</text>
		<text transform="matrix(1 0 0 1 589.042 134.0098)" fill="#211D1E" font-family="'OpenSans'" font-size="16" letter-spacing="3"> </text>
		<text transform="matrix(1 0 0 1 596.9053 134.0098)" fill="#211D1E" font-family="'OpenSans'" font-size="16">perspectiva</text>
		<text transform="matrix(1 0 0 1 683.7383 134.0098)" fill="#211D1E" font-family="'OpenSans'" font-size="16" letter-spacing="3"> </text>
		<text transform="matrix(1 0 0 1 691.6025 134.0098)" fill="#211D1E" font-family="'OpenSans'" font-size="16">em</text>
		<text transform="matrix(1 0 0 1 715.6211 134.0098)" fill="#211D1E" font-family="'OpenSans'" font-size="16" letter-spacing="3"> </text>
		<text transform="matrix(1 0 0 1 723.4854 134.0098)" fill="#211D1E" font-family="'OpenSans'" font-size="16">que</text>
		<text transform="matrix(1 0 0 1 752.3262 134.0098)" fill="#211D1E" font-family="'OpenSans'" font-size="16" letter-spacing="3"> </text>
		<text transform="matrix(1 0 0 1 760.1904 134.0098)" fill="#211D1E" font-family="'OpenSans'" font-size="16">temos</text>
		<text transform="matrix(1 0 0 1 807.3945 134.0098)" fill="#211D1E" font-family="'OpenSans'" font-size="16" letter-spacing="3"> </text>
		<text transform="matrix(1 0 0 1 815.2588 134.0098)" fill="#211D1E" font-family="'OpenSans'" font-size="16">trabalhando</text>
		<text transform="matrix(1 0 0 1 907.9746 134.0098)" fill="#211D1E" font-family="'OpenSans'" font-size="16" letter-spacing="3"> </text>
		<text transform="matrix(1 0 0 1 915.8379 134.0098)" fill="#211D1E" font-family="'OpenSans'" font-size="16">há </text>
		<text transform="matrix(1 0 0 1 570.1631 158.0098)" fill="#211D1E" font-family="'OpenSans'" font-size="16">alguns</text>
		<text transform="matrix(1 0 0 1 619.6279 158.0098)" fill="#211D1E" font-family="'OpenSans'" font-size="16"> </text>
		<text transform="matrix(1 0 0 1 623.1035 158.0098)" fill="#211D1E" font-family="'OpenSans'" font-size="16">anos,</text>
		<text transform="matrix(1 0 0 1 663.4414 158.0098)" fill="#211D1E" font-family="'OpenSans'" font-size="16"> </text>
		<text transform="matrix(1 0 0 1 666.917 158.0098)" fill="#211D1E" font-family="'OpenSans'" font-size="16">pode</text>
		<text transform="matrix(1 0 0 1 705.4873 158.0098)" fill="#211D1E" font-family="'OpenSans'" font-size="16"> </text>
		<text transform="matrix(1 0 0 1 708.9629 158.0098)" fill="#211D1E" font-family="'OpenSans'" font-size="16">ser</text>
		<text transform="matrix(1 0 0 1 732.3438 158.0098)" fill="#211D1E" font-family="'OpenSans'" font-size="16"> </text>
		<text transform="matrix(1 0 0 1 735.8193 158.0098)" fill="#211D1E" font-family="'OpenSans'" font-size="16">muito</text>
		<text transform="matrix(1 0 0 1 780.2822 158.0098)" fill="#211D1E" font-family="'OpenSans'" font-size="16"> </text>
		<text transform="matrix(1 0 0 1 783.7588 158.0098)" fill="#211D1E" font-family="'OpenSans'" font-size="16">frutífero:</text>
		<text transform="matrix(1 0 0 1 850.8789 158.0098)" fill="#211D1E" font-family="'OpenSans'" font-size="16"> </text>
		<text transform="matrix(1 0 0 1 854.3545 158.0098)" fill="#211D1E" font-family="'OpenSans'" font-size="16">trata-se</text>
		<text transform="matrix(1 0 0 1 912.3779 158.0098)" fill="#211D1E" font-family="'OpenSans'" font-size="16"> </text>
		<text transform="matrix(1 0 0 1 915.8535 158.0098)" fill="#211D1E" font-family="'OpenSans'" font-size="16">da </text>
		<text transform="matrix(1 0 0 1 570.1631 182.0098)" fill="#211D1E" font-family="'OpenSans'" font-size="16">questão</text>
		<text transform="matrix(1 0 0 1 631.168 182.0098)" fill="#211D1E" font-family="'OpenSans'" font-size="16" letter-spacing="1"> </text>
		<text transform="matrix(1 0 0 1 637.1016 182.0098)" fill="#211D1E" font-family="'OpenSans'" font-size="16">da</text>
		<text transform="matrix(1 0 0 1 655.9648 182.0098)" fill="#211D1E" font-family="'OpenSans'" font-size="16" letter-spacing="1"> </text>
		<text transform="matrix(1 0 0 1 661.8975 182.0098)" fill="#211D1E" font-family="'OpenSans'" font-size="16">presença/ausência</text>
		<text transform="matrix(1 0 0 1 803.1016 182.0098)" fill="#211D1E" font-family="'OpenSans'" font-size="16" letter-spacing="1"> </text>
		<text transform="matrix(1 0 0 1 809.0342 182.0098)" fill="#211D1E" font-family="'OpenSans'" font-size="16">do</text>
		<text transform="matrix(1 0 0 1 828.6631 182.0098)" fill="#211D1E" font-family="'OpenSans'" font-size="16" letter-spacing="1"> </text>
		<text transform="matrix(1 0 0 1 834.5957 182.0098)" fill="#211D1E" font-family="'OpenSans'" font-size="16">texto,</text>
		<text transform="matrix(1 0 0 1 877.3184 182.0098)" fill="#211D1E" font-family="'OpenSans'" font-size="16" letter-spacing="1"> </text>
		<text transform="matrix(1 0 0 1 883.251 182.0098)" fill="#211D1E" font-family="'OpenSans'" font-size="16">de</text>
		<text transform="matrix(1 0 0 1 902.1924 182.0098)" fill="#211D1E" font-family="'OpenSans'" font-size="16" letter-spacing="1"> </text>
		<text transform="matrix(1 0 0 1 908.125 182.0098)" fill="#211D1E" font-family="'OpenSans'" font-size="16">sua </text>
		<text transform="matrix(1 0 0 1 570.1631 206.0098)" fill="#211D1E" font-family="'OpenSans'" font-size="16">visibilidade/invisibilidade.</text>
		<text transform="matrix(1 0 0 1 570.1631 278.0098)" fill="#211D1E" font-family="'OpenSans-Bold'" font-size="18">A colocação do texto em primeiro plano</text>
		<text transform="matrix(1 0 0 1 570.1631 314.0098)" fill="#211D1E" font-family="'OpenSans'" font-size="16">Preocupações</text>
		<text transform="matrix(1 0 0 1 675.959 314.0098)" fill="#211D1E" font-family="'OpenSans'" font-size="16" letter-spacing="6"> </text>
		<text transform="matrix(1 0 0 1 686.3262 314.0098)" fill="#211D1E" font-family="'OpenSans'" font-size="16">com</text>
		<text transform="matrix(1 0 0 1 718.7305 314.0098)" fill="#211D1E" font-family="'OpenSans'" font-size="16" letter-spacing="6"> </text>
		<text transform="matrix(1 0 0 1 729.0977 314.0098)" fill="#211D1E" font-family="'OpenSans'" font-size="16">o</text>
		<text transform="matrix(1 0 0 1 738.8418 314.0098)" fill="#211D1E" font-family="'OpenSans'" font-size="16" letter-spacing="6"> </text>
		<text transform="matrix(1 0 0 1 749.209 314.0098)" fill="#211D1E" font-family="'OpenSans'" font-size="16">conhecimento</text>
		<text transform="matrix(1 0 0 1 856.7236 314.0098)" fill="#211D1E" font-family="'OpenSans'" font-size="16" letter-spacing="6"> </text>
		<text transform="matrix(1 0 0 1 867.0908 314.0098)" fill="#211D1E" font-family="'OpenSans'" font-size="16">científico </text>
		<text transform="matrix(1 0 0 1 570.1631 338.0098)" fill="#211D1E" font-family="'OpenSans'" font-size="16">recaem</text>
		<text transform="matrix(1 0 0 1 626.5264 338.0098)" fill="#211D1E" font-family="'OpenSans'" font-size="16" letter-spacing="2"> </text>
		<text transform="matrix(1 0 0 1 633.3828 338.0098)" fill="#211D1E" font-family="'OpenSans'" font-size="16">em</text>
		<text transform="matrix(1 0 0 1 657.4023 338.0098)" fill="#211D1E" font-family="'OpenSans'" font-size="16" letter-spacing="2"> </text>
		<text transform="matrix(1 0 0 1 664.2598 338.0098)" fill="#211D1E" font-family="'OpenSans'" font-size="16">questões</text>
		<text transform="matrix(1 0 0 1 733.0557 338.0098)" fill="#211D1E" font-family="'OpenSans'" font-size="16" letter-spacing="2"> </text>
		<text transform="matrix(1 0 0 1 739.9131 338.0098)" fill="#211D1E" font-family="'OpenSans'" font-size="16">que</text>
		<text transform="matrix(1 0 0 1 768.7539 338.0098)" fill="#211D1E" font-family="'OpenSans'" font-size="16" letter-spacing="2"> </text>
		<text transform="matrix(1 0 0 1 775.6113 338.0098)" fill="#211D1E" font-family="'OpenSans'" font-size="16">envolvem</text>
		<text transform="matrix(1 0 0 1 848.6494 338.0098)" fill="#211D1E" font-family="'OpenSans'" font-size="16" letter-spacing="2"> </text>
		<text transform="matrix(1 0 0 1 855.5068 338.0098)" fill="#211D1E" font-family="'OpenSans'" font-size="16">o</text>
		<text transform="matrix(1 0 0 1 865.251 338.0098)" fill="#211D1E" font-family="'OpenSans'" font-size="16" letter-spacing="2"> </text>
		<text transform="matrix(1 0 0 1 872.1084 338.0098)" fill="#211D1E" font-family="'OpenSans'" font-size="16">controle </text>
		<text transform="matrix(1 0 0 1 570.1631 362.0098)" fill="#211D1E" font-family="'OpenSans'" font-size="16">de</text>
		<text transform="matrix(1 0 0 1 589.1045 362.0098)" fill="#211D1E" font-family="'OpenSans'" font-size="16" letter-spacing="2"> </text>
		<text transform="matrix(1 0 0 1 595.792 362.0098)" fill="#211D1E" font-family="'OpenSans'" font-size="16">seus</text>
		<text transform="matrix(1 0 0 1 630.1738 362.0098)" fill="#211D1E" font-family="'OpenSans'" font-size="16" letter-spacing="2"> </text>
		<text transform="matrix(1 0 0 1 636.8613 362.0098)" fill="#211D1E" font-family="'OpenSans'" font-size="16">sentidos,</text>
		<text transform="matrix(1 0 0 1 704.7295 362.0098)" fill="#211D1E" font-family="'OpenSans'" font-size="16" letter-spacing="2"> </text>
		<text transform="matrix(1 0 0 1 711.417 362.0098)" fill="#211D1E" font-family="'OpenSans'" font-size="16">de</text>
		<text transform="matrix(1 0 0 1 730.3584 362.0098)" fill="#211D1E" font-family="'OpenSans'" font-size="16" letter-spacing="2"> </text>
		<text transform="matrix(1 0 0 1 737.0449 362.0098)" fill="#211D1E" font-family="'OpenSans'" font-size="16">seu</text>
		<text transform="matrix(1 0 0 1 763.7148 362.0098)" fill="#211D1E" font-family="'OpenSans'" font-size="16" letter-spacing="2"> </text>
		<text transform="matrix(1 0 0 1 770.4023 362.0098)" fill="#211D1E" font-family="'OpenSans'" font-size="16">conteúdo.</text>
		<text transform="matrix(1 0 0 1 846.3955 362.0098)" fill="#211D1E" font-family="'OpenSans'" font-size="16" letter-spacing="2"> </text>
		<text transform="matrix(1 0 0 1 853.083 362.0098)" fill="#211D1E" font-family="'OpenSans'" font-size="16">É</text>
		<text transform="matrix(1 0 0 1 862.0615 362.0098)" fill="#211D1E" font-family="'OpenSans'" font-size="16" letter-spacing="2"> </text>
		<text transform="matrix(1 0 0 1 868.749 362.0098)" fill="#211D1E" font-family="'OpenSans'" font-size="16">bastante </text>
		<text transform="matrix(1 0 0 1 570.1631 386.0098)" fill="#211D1E" font-family="'OpenSans'" font-size="16">reconhecida</text>
		<text transform="matrix(1 0 0 1 662.8164 386.0098)" fill="#211D1E" font-family="'OpenSans'" font-size="16" letter-spacing="1"> </text>
		<text transform="matrix(1 0 0 1 667.9912 386.0098)" fill="#211D1E" font-family="'OpenSans'" font-size="16">na</text>
		<text transform="matrix(1 0 0 1 686.8701 386.0098)" fill="#211D1E" font-family="'OpenSans'" font-size="16" letter-spacing="1"> </text>
		<text transform="matrix(1 0 0 1 692.0449 386.0098)" fill="#211D1E" font-family="'OpenSans'" font-size="16">área</text>
		<text transform="matrix(1 0 0 1 725.6699 386.0098)" fill="#211D1E" font-family="'OpenSans'" font-size="16" letter-spacing="1"> </text>
		<text transform="matrix(1 0 0 1 730.8447 386.0098)" fill="#211D1E" font-family="'OpenSans'" font-size="16">de</text>
		<text transform="matrix(1 0 0 1 749.7861 386.0098)" fill="#211D1E" font-family="'OpenSans'" font-size="16" letter-spacing="1"> </text>
		<text transform="matrix(1 0 0 1 754.9609 386.0098)" fill="#211D1E" font-family="'OpenSans'" font-size="16">educação</text>
		<text transform="matrix(1 0 0 1 826.8975 386.0098)" fill="#211D1E" font-family="'OpenSans'" font-size="16" letter-spacing="1"> </text>
		<text transform="matrix(1 0 0 1 832.0732 386.0098)" fill="#211D1E" font-family="'OpenSans'" font-size="16">em</text>
		<text transform="matrix(1 0 0 1 856.0918 386.0098)" fill="#211D1E" font-family="'OpenSans'" font-size="16" letter-spacing="1"> </text>
		<text transform="matrix(1 0 0 1 861.2676 386.0098)" fill="#211D1E" font-family="'OpenSans'" font-size="16">ciências</text>
		<text transform="matrix(1 0 0 1 920.5635 386.0098)" fill="#211D1E" font-family="'OpenSans'" font-size="16" letter-spacing="1"> </text>
		<text transform="matrix(1 0 0 1 925.7383 386.0098)" fill="#211D1E" font-family="'OpenSans'" font-size="16">a </text>
		<text transform="matrix(1 0 0 1 570.1631 410.0098)" fill="#211D1E" font-family="'OpenSans'" font-size="16">importância</text>
		
			<text transform="matrix(1 0 0 1 660.9023 410.0098)" fill="#211D1E" font-family="'OpenSans'" font-size="16" letter-spacing="12"> </text>
		<text transform="matrix(1 0 0 1 677.9277 410.0098)" fill="#211D1E" font-family="'OpenSans'" font-size="16">da</text>
		<text transform="matrix(1 0 0 1 696.791 410.0098)" fill="#211D1E" font-family="'OpenSans'" font-size="16" letter-spacing="12"> </text>
		<text transform="matrix(1 0 0 1 713.8164 410.0098)" fill="#211D1E" font-family="'OpenSans'" font-size="16">“vigilância</text>
		<text transform="matrix(1 0 0 1 788.501 410.0098)" fill="#211D1E" font-family="'OpenSans'" font-size="16" letter-spacing="12"> </text>
		<text transform="matrix(1 0 0 1 805.5254 410.0098)" fill="#211D1E" font-family="'OpenSans'" font-size="16">epistemológica</text>
		<text transform="matrix(0.583 0 0 0.583 919.3174 404.6816)" fill="#211D1E" font-family="'OpenSans'" font-size="16">3</text>
		<text transform="matrix(1 0 0 1 924.6982 410.0098)" fill="#211D1E" font-family="'OpenSans'" font-size="16">”. </text>
		<text transform="matrix(1 0 0 1 570.1631 434.0098)" fill="#211D1E" font-family="'OpenSans'" font-size="16">Concordamos</text>
		
			<text transform="matrix(1 0 0 1 675.3164 434.0098)" fill="#211D1E" font-family="'OpenSans'" font-size="16" letter-spacing="13"> </text>
		<text transform="matrix(1 0 0 1 692.5781 434.0098)" fill="#211D1E" font-family="'OpenSans'" font-size="16">que</text>
		
			<text transform="matrix(1 0 0 1 721.4199 434.0098)" fill="#211D1E" font-family="'OpenSans'" font-size="16" letter-spacing="13"> </text>
		<text transform="matrix(1 0 0 1 738.6816 434.0098)" fill="#211D1E" font-family="'OpenSans'" font-size="16">essa</text>
		
			<text transform="matrix(1 0 0 1 772.1416 434.0098)" fill="#211D1E" font-family="'OpenSans'" font-size="16" letter-spacing="13"> </text>
		<text transform="matrix(1 0 0 1 789.4033 434.0098)" fill="#211D1E" font-family="'OpenSans'" font-size="16">preocupação</text>
		
			<text transform="matrix(1 0 0 1 887.5801 434.0098)" fill="#211D1E" font-family="'OpenSans'" font-size="16" letter-spacing="13"> </text>
		<text transform="matrix(1 0 0 1 904.8418 434.0098)" fill="#211D1E" font-family="'OpenSans'" font-size="16">seja </text>
		<text transform="matrix(1 0 0 1 570.1631 458.0098)" fill="#211D1E" font-family="'OpenSans'" font-size="16">extremamente</text>
		<text transform="matrix(1 0 0 1 681.7246 458.0098)" fill="#211D1E" font-family="'OpenSans'" font-size="16"> </text>
		<text transform="matrix(1 0 0 1 685.9375 458.0098)" fill="#211D1E" font-family="'OpenSans'" font-size="16">pertinente,</text>
		<text transform="matrix(1 0 0 1 768.9893 458.0098)" fill="#211D1E" font-family="'OpenSans'" font-size="16"> </text>
		<text transform="matrix(1 0 0 1 773.2012 458.0098)" fill="#211D1E" font-family="'OpenSans'" font-size="16">pois,</text>
		<text transform="matrix(1 0 0 1 808.6719 458.0098)" fill="#211D1E" font-family="'OpenSans'" font-size="16"> </text>
		<text transform="matrix(1 0 0 1 812.8848 458.0098)" fill="#211D1E" font-family="'OpenSans'" font-size="16">ao</text>
		<text transform="matrix(1 0 0 1 831.6074 458.0098)" fill="#211D1E" font-family="'OpenSans'" font-size="16"> </text>
		<text transform="matrix(1 0 0 1 835.8193 458.0098)" fill="#211D1E" font-family="'OpenSans'" font-size="16">tratarmos</text>
		<text transform="matrix(1 0 0 1 910.876 458.0098)" fill="#211D1E" font-family="'OpenSans'" font-size="16"> </text>
		<text transform="matrix(1 0 0 1 915.0879 458.0098)" fill="#211D1E" font-family="'OpenSans'" font-size="16">do </text>
		<text transform="matrix(1 0 0 1 570.1631 482.0098)" fill="#211D1E" font-family="'OpenSans'" font-size="16">conhecimento</text>
		<text transform="matrix(1 0 0 1 677.6777 482.0098)" fill="#211D1E" font-family="'OpenSans'" font-size="16" letter-spacing="3"> </text>
		<text transform="matrix(1 0 0 1 685.7939 482.0098)" fill="#211D1E" font-family="'OpenSans'" font-size="16">científico,</text>
		<text transform="matrix(1 0 0 1 757.4219 482.0098)" fill="#211D1E" font-family="'OpenSans'" font-size="16" letter-spacing="3"> </text>
		<text transform="matrix(1 0 0 1 765.5381 482.0098)" fill="#211D1E" font-family="'OpenSans'" font-size="16">estamos</text>
		<text transform="matrix(1 0 0 1 829.4346 482.0098)" fill="#211D1E" font-family="'OpenSans'" font-size="16" letter-spacing="3"> </text>
		<text transform="matrix(1 0 0 1 837.5508 482.0098)" fill="#211D1E" font-family="'OpenSans'" font-size="16">lidando</text>
		<text transform="matrix(1 0 0 1 894.1963 482.0098)" fill="#211D1E" font-family="'OpenSans'" font-size="16" letter-spacing="3"> </text>
		<text transform="matrix(1 0 0 1 902.3125 482.0098)" fill="#211D1E" font-family="'OpenSans'" font-size="16">com </text>
		<text transform="matrix(1 0 0 1 570.1631 506.0098)" fill="#211D1E" font-family="'OpenSans'" font-size="16">um</text>
		
			<text transform="matrix(1 0 0 1 595.0264 506.0098)" fill="#211D1E" font-family="'OpenSans'" font-size="16" letter-spacing="10"> </text>
		<text transform="matrix(1 0 0 1 609.5273 506.0098)" fill="#211D1E" font-family="'OpenSans'" font-size="16">campo</text>
		
			<text transform="matrix(1 0 0 1 660.7939 506.0098)" fill="#211D1E" font-family="'OpenSans'" font-size="16" letter-spacing="10"> </text>
		<text transform="matrix(1 0 0 1 675.2949 506.0098)" fill="#211D1E" font-family="'OpenSans'" font-size="16">de</text>
		
			<text transform="matrix(1 0 0 1 694.2363 506.0098)" fill="#211D1E" font-family="'OpenSans'" font-size="16" letter-spacing="10"> </text>
		<text transform="matrix(1 0 0 1 708.7373 506.0098)" fill="#211D1E" font-family="'OpenSans'" font-size="16">sentidos</text>
		
			<text transform="matrix(1 0 0 1 772.6045 506.0098)" fill="#211D1E" font-family="'OpenSans'" font-size="16" letter-spacing="10"> </text>
		<text transform="matrix(1 0 0 1 787.1055 506.0098)" fill="#211D1E" font-family="'OpenSans'" font-size="16">bastante</text>
		
			<text transform="matrix(1 0 0 1 853.0732 506.0098)" fill="#211D1E" font-family="'OpenSans'" font-size="16" letter-spacing="10"> </text>
		<text transform="matrix(1 0 0 1 867.5742 506.0098)" fill="#211D1E" font-family="'OpenSans'" font-size="16">rigoroso, </text>
		<text transform="matrix(1 0 0 1 570.1631 530.0098)" fill="#211D1E" font-family="'OpenSans'" font-size="16">resistente</text>
		<text transform="matrix(1 0 0 1 644.8535 530.0098)" fill="#211D1E" font-family="'OpenSans'" font-size="16" letter-spacing="2"> </text>
		<text transform="matrix(1 0 0 1 651.6797 530.0098)" fill="#211D1E" font-family="'OpenSans'" font-size="16">a</text>
		<text transform="matrix(1 0 0 1 660.6582 530.0098)" fill="#211D1E" font-family="'OpenSans'" font-size="16" letter-spacing="2"> </text>
		<text transform="matrix(1 0 0 1 667.4844 530.0098)" fill="#211D1E" font-family="'OpenSans'" font-size="16">mudanças</text>
		<text transform="matrix(1 0 0 1 745.5 530.0098)" fill="#211D1E" font-family="'OpenSans'" font-size="16" letter-spacing="2"> </text>
		<text transform="matrix(1 0 0 1 752.3262 530.0098)" fill="#211D1E" font-family="'OpenSans'" font-size="16">fáceis,</text>
		<text transform="matrix(1 0 0 1 799.4014 530.0098)" fill="#211D1E" font-family="'OpenSans'" font-size="16" letter-spacing="2"> </text>
		<text transform="matrix(1 0 0 1 806.2275 530.0098)" fill="#211D1E" font-family="'OpenSans'" font-size="16">com</text>
		<text transform="matrix(1 0 0 1 838.6318 530.0098)" fill="#211D1E" font-family="'OpenSans'" font-size="16" letter-spacing="2"> </text>
		<text transform="matrix(1 0 0 1 845.458 530.0098)" fill="#211D1E" font-family="'OpenSans'" font-size="16">sua</text>
		<text transform="matrix(1 0 0 1 872.0498 530.0098)" fill="#211D1E" font-family="'OpenSans'" font-size="16" letter-spacing="2"> </text>
		<text transform="matrix(1 0 0 1 878.876 530.0098)" fill="#211D1E" font-family="'OpenSans'" font-size="16">própria </text>
		<text transform="matrix(1 0 0 1 570.1631 554.0098)" fill="#211D1E" font-family="'OpenSans'" font-size="16">ordem</text>
		
			<text transform="matrix(1 0 0 1 620.4229 554.0098)" fill="#211D1E" font-family="'OpenSans'" font-size="16" letter-spacing="12"> </text>
		<text transform="matrix(1 0 0 1 637.1201 554.0098)" fill="#211D1E" font-family="'OpenSans'" font-size="16">de</text>
		
			<text transform="matrix(1 0 0 1 656.0615 554.0098)" fill="#211D1E" font-family="'OpenSans'" font-size="16" letter-spacing="12"> </text>
		<text transform="matrix(1 0 0 1 672.7588 554.0098)" fill="#211D1E" font-family="'OpenSans'" font-size="16">produção.</text>
		<text transform="matrix(1 0 0 1 749.542 554.0098)" fill="#211D1E" font-family="'OpenSans'" font-size="16" letter-spacing="12"> </text>
		<text transform="matrix(1 0 0 1 766.2393 554.0098)" fill="#211D1E" font-family="'OpenSans'" font-size="16">No</text>
		<text transform="matrix(1 0 0 1 788.126 554.0098)" fill="#211D1E" font-family="'OpenSans'" font-size="16" letter-spacing="12"> </text>
		<text transform="matrix(1 0 0 1 804.8232 554.0098)" fill="#211D1E" font-family="'OpenSans'" font-size="16">entanto,</text>
		
			<text transform="matrix(1 0 0 1 867.8623 554.0098)" fill="#211D1E" font-family="'OpenSans'" font-size="16" letter-spacing="12"> </text>
		<text transform="matrix(1 0 0 1 884.5596 554.0098)" fill="#211D1E" font-family="'OpenSans'" font-size="16">se</text>
		
			<text transform="matrix(1 0 0 1 901.3291 554.0098)" fill="#211D1E" font-family="'OpenSans'" font-size="16" letter-spacing="12"> </text>
		<text transform="matrix(1 0 0 1 918.0273 554.0098)" fill="#211D1E" font-family="'OpenSans'" font-size="16">as </text>
		<text transform="matrix(1 0 0 1 570.1631 578.0098)" fill="#211D1E" font-family="'OpenSans'" font-size="16">preocupações</text>
		<text transform="matrix(1 0 0 1 676.1309 578.0098)" fill="#211D1E" font-family="'OpenSans'" font-size="16" letter-spacing="6"> </text>
		<text transform="matrix(1 0 0 1 686.6123 578.0098)" fill="#211D1E" font-family="'OpenSans'" font-size="16">nessa</text>
		<text transform="matrix(1 0 0 1 729.9736 578.0098)" fill="#211D1E" font-family="'OpenSans'" font-size="16" letter-spacing="6"> </text>
		<text transform="matrix(1 0 0 1 740.4551 578.0098)" fill="#211D1E" font-family="'OpenSans'" font-size="16">direção</text>
		<text transform="matrix(1 0 0 1 796.5537 578.0098)" fill="#211D1E" font-family="'OpenSans'" font-size="16" letter-spacing="6"> </text>
		<text transform="matrix(1 0 0 1 807.0352 578.0098)" fill="#211D1E" font-family="'OpenSans'" font-size="16">são</text>
		<text transform="matrix(1 0 0 1 833.4707 578.0098)" fill="#211D1E" font-family="'OpenSans'" font-size="16" letter-spacing="6"> </text>
		<text transform="matrix(1 0 0 1 843.9521 578.0098)" fill="#211D1E" font-family="'OpenSans'" font-size="16">pertinentes, </text>
		<text transform="matrix(1 0 0 1 570.1631 602.0098)" fill="#211D1E" font-family="'OpenSans'" font-size="16">elas</text>
		
			<text transform="matrix(1 0 0 1 600.0381 602.0098)" fill="#211D1E" font-family="'OpenSans'" font-size="16" letter-spacing="11"> </text>
		<text transform="matrix(1 0 0 1 615.6357 602.0098)" fill="#211D1E" font-family="'OpenSans'" font-size="16">acabam</text>
		
			<text transform="matrix(1 0 0 1 675.1162 602.0098)" fill="#211D1E" font-family="'OpenSans'" font-size="16" letter-spacing="11"> </text>
		<text transform="matrix(1 0 0 1 690.7139 602.0098)" fill="#211D1E" font-family="'OpenSans'" font-size="16">levando</text>
		<text transform="matrix(1 0 0 1 750.5 602.0098)" fill="#211D1E" font-family="'OpenSans'" font-size="16" letter-spacing="11"> </text>
		<text transform="matrix(1 0 0 1 766.0986 602.0098)" fill="#211D1E" font-family="'OpenSans'" font-size="16">a</text>
		
			<text transform="matrix(1 0 0 1 775.0771 602.0098)" fill="#211D1E" font-family="'OpenSans'" font-size="16" letter-spacing="11"> </text>
		<text transform="matrix(1 0 0 1 790.6748 602.0098)" fill="#211D1E" font-family="'OpenSans'" font-size="16">se</text>
		
			<text transform="matrix(1 0 0 1 807.4443 602.0098)" fill="#211D1E" font-family="'OpenSans'" font-size="16" letter-spacing="11"> </text>
		<text transform="matrix(1 0 0 1 823.042 602.0098)" fill="#211D1E" font-family="'OpenSans'" font-size="16">colocarem</text>
		
			<text transform="matrix(1 0 0 1 901.6602 602.0098)" fill="#211D1E" font-family="'OpenSans'" font-size="16" letter-spacing="11"> </text>
		<text transform="matrix(1 0 0 1 917.2588 602.0098)" fill="#211D1E" font-family="'OpenSans'" font-size="16">os </text>
		<text transform="matrix(1 0 0 1 570.1631 626.0098)" fill="#211D1E" font-family="'OpenSans'" font-size="16">“conteúdos”</text>
		<text transform="matrix(1 0 0 1 660.8945 626.0098)" fill="#211D1E" font-family="'OpenSans'" font-size="16" letter-spacing="2"> </text>
		<text transform="matrix(1 0 0 1 667.9297 626.0098)" fill="#211D1E" font-family="'OpenSans'" font-size="16">em</text>
		<text transform="matrix(1 0 0 1 691.9492 626.0098)" fill="#211D1E" font-family="'OpenSans'" font-size="16" letter-spacing="2"> </text>
		<text transform="matrix(1 0 0 1 698.9834 626.0098)" fill="#211D1E" font-family="'OpenSans'" font-size="16">primeiro</text>
		<text transform="matrix(1 0 0 1 764.1084 626.0098)" fill="#211D1E" font-family="'OpenSans'" font-size="16" letter-spacing="2"> </text>
		<text transform="matrix(1 0 0 1 771.1426 626.0098)" fill="#211D1E" font-family="'OpenSans'" font-size="16">plano</text>
		<text transform="matrix(1 0 0 1 813.7773 626.0098)" fill="#211D1E" font-family="'OpenSans'" font-size="16" letter-spacing="2"> </text>
		<text transform="matrix(1 0 0 1 820.8125 626.0098)" fill="#211D1E" font-family="'OpenSans'" font-size="16">à</text>
		<text transform="matrix(1 0 0 1 829.791 626.0098)" fill="#211D1E" font-family="'OpenSans'" font-size="16" letter-spacing="2"> </text>
		<text transform="matrix(1 0 0 1 836.8252 626.0098)" fill="#211D1E" font-family="'OpenSans'" font-size="16">custa</text>
		<text transform="matrix(1 0 0 1 876.8428 626.0098)" fill="#211D1E" font-family="'OpenSans'" font-size="16" letter-spacing="2"> </text>
		<text transform="matrix(1 0 0 1 883.8779 626.0098)" fill="#211D1E" font-family="'OpenSans'" font-size="16">de</text>
		<text transform="matrix(1 0 0 1 902.8184 626.0098)" fill="#211D1E" font-family="'OpenSans'" font-size="16" letter-spacing="2"> </text>
		<text transform="matrix(1 0 0 1 909.8535 626.0098)" fill="#211D1E" font-family="'OpenSans'" font-size="16">um </text>
		<text transform="matrix(1 0 0 1 570.1631 650.0098)" fill="#211D1E" font-family="'OpenSans'" font-size="16">apagamento</text>
		<text transform="matrix(1 0 0 1 665.2207 650.0098)" fill="#211D1E" font-family="'OpenSans'" font-size="16" letter-spacing="6"> </text>
		<text transform="matrix(1 0 0 1 675.5723 650.0098)" fill="#211D1E" font-family="'OpenSans'" font-size="16">e</text>
		<text transform="matrix(1 0 0 1 684.6289 650.0098)" fill="#211D1E" font-family="'OpenSans'" font-size="16" letter-spacing="6"> </text>
		<text transform="matrix(1 0 0 1 694.9805 650.0098)" fill="#211D1E" font-family="'OpenSans'" font-size="16">da</text>
		<text transform="matrix(1 0 0 1 713.8438 650.0098)" fill="#211D1E" font-family="'OpenSans'" font-size="16" letter-spacing="6"> </text>
		<text transform="matrix(1 0 0 1 724.1943 650.0098)" fill="#211D1E" font-family="'OpenSans'" font-size="16">invisibilidade</text>
		<text transform="matrix(1 0 0 1 822.3535 650.0098)" fill="#211D1E" font-family="'OpenSans'" font-size="16" letter-spacing="6"> </text>
		<text transform="matrix(1 0 0 1 832.7051 650.0098)" fill="#211D1E" font-family="'OpenSans'" font-size="16">dos</text>
		<text transform="matrix(1 0 0 1 860.0469 650.0098)" fill="#211D1E" font-family="'OpenSans'" font-size="16" letter-spacing="6"> </text>
		<text transform="matrix(1 0 0 1 870.3984 650.0098)" fill="#211D1E" font-family="'OpenSans'" font-size="16">próprios </text>
		<text transform="matrix(1 0 0 1 570.1631 674.0098)" fill="#211D1E" font-family="'OpenSans'" font-size="16">textos.</text>
		
			<text transform="matrix(1 0 0 1 620.9336 674.0098)" fill="#211D1E" font-family="'OpenSans'" font-size="16" letter-spacing="15"> </text>
		<text transform="matrix(1 0 0 1 640.9111 674.0098)" fill="#211D1E" font-family="'OpenSans'" font-size="16">Os</text>
		<text transform="matrix(1 0 0 1 661.165 674.0098)" fill="#211D1E" font-family="'OpenSans'" font-size="16" letter-spacing="15"> </text>
		<text transform="matrix(1 0 0 1 681.1416 674.0098)" fill="#211D1E" font-family="'OpenSans'" font-size="16">textos</text>
		
			<text transform="matrix(1 0 0 1 727.5752 674.0098)" fill="#211D1E" font-family="'OpenSans'" font-size="16" letter-spacing="15"> </text>
		<text transform="matrix(1 0 0 1 747.5518 674.0098)" fill="#211D1E" font-family="'OpenSans'" font-size="16">não</text>
		
			<text transform="matrix(1 0 0 1 776.1748 674.0098)" fill="#211D1E" font-family="'OpenSans'" font-size="16" letter-spacing="15"> </text>
		<text transform="matrix(1 0 0 1 796.1514 674.0098)" fill="#211D1E" font-family="'OpenSans'" font-size="16">aparecem</text>
		
			<text transform="matrix(1 0 0 1 871.3779 674.0098)" fill="#211D1E" font-family="'OpenSans'" font-size="16" letter-spacing="15"> </text>
		<text transform="matrix(1 0 0 1 891.3545 674.0098)" fill="#211D1E" font-family="'OpenSans'" font-size="16">nessa </text>
		<text transform="matrix(1 0 0 1 570.1631 698.0098)" fill="#211D1E" font-family="'OpenSans'" font-size="16">perspectiva como partes da produção da ciência, </text>
	</g>
	<line fill="none" stroke="#D0004B" stroke-miterlimit="10" x1="14.115" y1="48.521" x2="1010.065" y2="48.521"/>
	<g>
		<text transform="matrix(1 0 0 1 31.5938 36.5205)" fill="#D0004B" font-family="'OpenSans-Light'" font-size="14">Mesa-redonda:Colóquio Internacional sobre tendências contemporâneas da comunicação científica</text>
	</g>
	<rect x="576.305" y="717.487" fill="none" width="366.084" height="31.498"/>
	<text transform="matrix(0.583 0 0 0.583 586.3047 722.6113)" fill="#595959" font-family="'OpenSans-Light'" font-size="12">3 </text>
	<text transform="matrix(1 0 0 1 592.1152 726.6074)" fill="#595959" font-family="'OpenSans-Light'" font-size="12">A expressão tem origem em Bachelard.</text>
</g>
<g id="degrade_x5F_da_x5F_folha">
</g>
<g id="sumario">
	<g id="sumario_x5F_fechado">
	</g>
</g>
<g id="grid">
</g>
</svg>
